<svg width="51" height="50" viewBox="0 0 51 50" fill="none" xmlns="http://www.w3.org/2000/svg">
<circle opacity="0.4" cx="25.2192" cy="25" r="25" fill="#FAFAFA"/>
<g clip-path="url(#clip0_890_5281)">
<path d="M13.2676 36.0812C13.1973 36.3251 13.2676 36.5922 13.4456 36.7704C13.5769 36.9015 13.7598 36.9766 13.9426 36.9766C14.0081 36.9766 14.0738 36.9672 14.1348 36.9484L20.6878 35.0781L15.1379 29.5282L13.2676 36.0812Z" fill="#FAFAFA"/>
<path d="M13.9425 37C13.7502 37 13.5675 36.9249 13.4316 36.7891C13.2441 36.6016 13.1738 36.3297 13.2487 36.0766L15.133 29.4859L20.7394 35.0922L14.1393 36.9718C14.0738 36.9907 14.008 37 13.9425 37ZM15.1519 29.5703L13.291 36.0859C13.2253 36.3251 13.291 36.5781 13.4644 36.7515C13.5909 36.8781 13.7643 36.9484 13.9425 36.9484C14.0035 36.9484 14.069 36.939 14.13 36.9203L20.6456 35.0594L15.1519 29.5703Z" fill="#FAFAFA"/>
<path d="M36.5781 16.6187L33.6016 13.6422C33.1985 13.2437 32.6736 13.0234 32.1063 13.0234C31.5438 13.0234 31.0141 13.2437 30.6157 13.6376L29.125 15.1281L35.0829 21.0859L36.5735 19.5953C36.972 19.1968 37.1875 18.6671 37.1875 18.1046C37.1923 17.5421 36.972 17.0172 36.5781 16.6187Z" fill="#FAFAFA"/>
<path d="M35.0878 21.1187L29.0972 15.1281L30.6017 13.6235C31.0049 13.2203 31.5392 13 32.1065 13C32.6783 13 33.2128 13.2203 33.6113 13.6235L36.5878 16.6C36.9908 17.0031 37.2111 17.5375 37.2111 18.1046C37.2111 18.6766 36.9908 19.2109 36.5878 19.6094L35.0878 21.1187ZM29.1627 15.1281L35.0878 21.0532L36.5596 19.5812C36.9533 19.1875 37.169 18.6671 37.169 18.1094C37.169 17.5516 36.9533 17.0312 36.5596 16.6376L33.5831 13.6562C33.1894 13.2626 32.6642 13.0469 32.1065 13.0469C31.5488 13.0469 31.0284 13.2626 30.6347 13.6562L29.1627 15.1281Z" fill="#FAFAFA"/>
<path d="M15.9287 28.3289L28.136 16.1214L34.0955 22.0809L21.8882 34.2884L15.9287 28.3289Z" fill="#FAFAFA"/>
<path d="M21.8878 34.3234L15.8926 28.3281L28.1363 16.089L34.127 22.0797L21.8878 34.3234ZM15.9629 28.3281L21.8878 34.2531L34.0612 22.0797L28.1363 16.1547L15.9629 28.3281Z" fill="#FAFAFA"/>
</g>
<defs>
<clipPath id="clip0_890_5281">
<rect width="24" height="24" fill="white" transform="translate(13.2192 13)"/>
</clipPath>
</defs>
</svg>
