<svg width="31" height="31" viewBox="0 0 31 31" fill="none" xmlns="http://www.w3.org/2000/svg">
<g clip-path="url(#clip0_893_5542)">
<path d="M27.3678 22.0673C25.4778 20.4698 24.394 18.1348 24.394 15.661V12.176C24.394 7.77728 21.1265 4.13603 16.894 3.52603V2.17603C16.894 1.48478 16.334 0.926025 15.644 0.926025C14.954 0.926025 14.394 1.48478 14.394 2.17603V3.52603C10.1603 4.13603 6.89404 7.77728 6.89404 12.176V15.661C6.89404 18.1348 5.81029 20.4698 3.90904 22.0773C3.42279 22.4935 3.14404 23.0985 3.14404 23.7385C3.14404 24.9448 4.12529 25.926 5.33154 25.926H25.9565C27.1628 25.926 28.144 24.9448 28.144 23.7385C28.144 23.0985 27.8653 22.4935 27.3678 22.0673Z" fill="#FAFAFA"/>
<path d="M15.6443 30.926C17.908 30.926 19.8018 29.3123 20.2368 27.176H11.0518C11.4868 29.3123 13.3805 30.926 15.6443 30.926Z" fill="#FAFAFA"/>
</g>
<defs>
<clipPath id="clip0_893_5542">
<rect width="30" height="30" fill="white" transform="translate(0.644043 0.926025)"/>
</clipPath>
</defs>
</svg>
