<svg width="46" height="50" viewBox="0 0 46 50" fill="none" xmlns="http://www.w3.org/2000/svg">
<path fill-rule="evenodd" clip-rule="evenodd" d="M32.2831 18.7794C31.9842 19.3553 31.5439 19.8103 31.0269 20.1238L31.883 28.0308L27.8667 25.9468L27.3235 20.9299L22.9088 23.3742L18.8924 21.2902L25.8504 17.4378C25.8091 16.8345 25.9276 16.2127 26.2265 15.6367C27.0943 13.9642 29.1536 13.3119 30.8261 14.1797C32.4986 15.0476 33.1509 17.1069 32.2831 18.7794ZM17.2321 22.2094L9.67287 26.3948L11.4983 29.6918L21.2485 24.2935L17.2321 22.2094ZM28.071 27.8336L29.2707 38.9135L33.0175 38.5079L32.0873 29.9176L28.071 27.8336Z" fill="#01B1B8"/>
<path d="M34.7915 16.4601C34.2702 14.8143 33.1392 13.4702 31.6069 12.6751C30.0746 11.88 28.3244 11.7292 26.6788 12.2506L25.7304 9.25659C28.1756 8.48197 30.7766 8.70611 33.0534 9.88749C33.0535 9.88754 33.0533 9.88745 33.0534 9.88749C35.3303 11.0689 37.0109 13.0664 37.7856 15.5118L34.7915 16.4601Z" fill="#FAFAFA"/>
<path d="M40.1084 14.7762C38.1037 8.44743 31.3238 4.92942 24.9951 6.93412L24.0468 3.94008C32.0264 1.4127 40.5746 5.84816 43.1024 13.8278L40.1084 14.7762Z" fill="#FAFAFA"/>
<path d="M21.1466 50C24.5989 50 27.8983 49.3468 30.929 48.158L21.1466 33.4365L11.3643 48.1581C14.3949 49.3468 17.6944 50 21.1466 50Z" fill="#01B1B8"/>
<path d="M8.09766 17.4696C5.40099 26.0765 9.17856 35.637 17.4622 39.9353C25.7459 44.2336 35.7378 41.8178 41.2224 34.6576L8.09766 17.4696Z" fill="#FAFAFA"/>
</svg>
