<svg width="26" height="25" viewBox="0 0 26 25" fill="none" xmlns="http://www.w3.org/2000/svg">
<circle opacity="0.4" cx="12.8726" cy="12.5" r="12.5" fill="#FAFAFA"/>
<g clip-path="url(#clip0_890_5354)">
<path d="M20.4285 5.43392C20.3013 5.38103 20.1548 5.41028 20.0577 5.50774L18.6433 6.92214C17.1257 5.36011 15.0982 4.5 12.9337 4.5C12.4759 4.5 12.0141 4.53997 11.5615 4.61855C8.48085 5.15397 5.98475 7.46029 5.20271 10.4944C5.17635 10.5963 5.1988 10.7044 5.26309 10.7876C5.32755 10.8708 5.42671 10.9194 5.53199 10.9194H7.69848C7.84118 10.9194 7.96891 10.8303 8.01789 10.6961C8.65212 8.96245 10.2276 7.63955 12.0315 7.32609C12.3286 7.27456 12.631 7.24853 12.9308 7.24853C14.3643 7.24853 15.703 7.82239 16.7012 8.86432L15.2649 10.3005C15.1677 10.3978 15.1387 10.5441 15.191 10.6711C15.2439 10.7983 15.3678 10.8812 15.5054 10.8812H20.2984C20.4862 10.8812 20.6386 10.7288 20.6386 10.541V5.74807C20.6386 5.61064 20.5554 5.48665 20.4285 5.43392Z" fill="#FAFAFA"/>
<path d="M20.2122 14.0803H18.0459C17.9032 14.0803 17.7754 14.1693 17.7265 14.3035C17.0922 16.0371 15.5168 17.3602 13.7129 17.6735C13.4156 17.725 13.1134 17.751 12.8135 17.751C11.3801 17.751 10.0412 17.1772 9.04315 16.1353L10.4793 14.6991C10.5766 14.6018 10.6057 14.4555 10.5531 14.3285C10.5004 14.2013 10.3764 14.1184 10.2388 14.1184H5.44612C5.25835 14.1184 5.10596 14.2708 5.10596 14.4586V19.2517C5.10596 19.3893 5.18879 19.5133 5.31601 19.566C5.44289 19.6187 5.58933 19.5895 5.68661 19.492L7.101 18.0778C8.61846 19.6396 10.646 20.4999 12.8104 20.4999C13.2685 20.4999 13.7302 20.4599 14.1828 20.3814C17.2633 19.8463 19.7596 17.5396 20.5416 14.5055C20.568 14.4035 20.5455 14.2956 20.4814 14.2121C20.4168 14.1291 20.3175 14.0803 20.2122 14.0803Z" fill="#FAFAFA"/>
</g>
<defs>
<clipPath id="clip0_890_5354">
<rect width="16" height="16" fill="white" transform="translate(4.87256 4.5)"/>
</clipPath>
</defs>
</svg>
