<svg width="51" height="51" viewBox="0 0 51 51" fill="none" xmlns="http://www.w3.org/2000/svg">
<path d="M36.9964 36.0069H14.3901C13.7028 36.0105 13.0418 35.7412 12.5527 35.2585C12.0635 34.7758 11.7848 34.1192 11.7793 33.432V18.0081C11.7848 17.321 12.0635 16.6641 12.5527 16.1816C13.0419 15.6992 13.703 15.4307 14.3901 15.4348H19.1694L19.8397 13.674C20.0318 13.1826 20.368 12.7621 20.8037 12.4647C21.2394 12.1673 21.7542 12.0068 22.2817 12.0069H29.1C29.6276 12.0068 30.1423 12.1673 30.578 12.4647C31.0138 12.7621 31.35 13.1826 31.542 13.674L32.2123 15.4348H36.9964C37.6834 15.4307 38.343 15.6992 38.8322 16.1816C39.3214 16.6641 39.6001 17.321 39.6056 18.0081V33.432C39.6001 34.1192 39.3229 34.7758 38.8337 35.2585C38.3446 35.7412 37.6836 36.0105 36.9964 36.0069ZM25.6924 19.2923C23.9754 19.2808 22.3236 19.9511 21.1006 21.1563C19.8775 22.3615 19.1832 24.0031 19.1694 25.72C19.1832 27.437 19.8775 29.0771 21.1006 30.2822C22.3236 31.4874 23.9754 32.1592 25.6924 32.1477C27.4089 32.1584 29.0589 31.4873 30.2812 30.2822C31.5035 29.0772 32.197 27.4365 32.2107 25.72C32.1966 24.0041 31.5033 22.3626 30.2812 21.1579C29.0591 19.9531 27.4085 19.2835 25.6924 19.2939V19.2923Z" fill="#FAFAFA"/>
<g clip-path="url(#clip0_890_5235)">
<path d="M30.3703 21.1257C30.2916 21.093 30.2009 21.1111 30.1408 21.1714L29.2652 22.047C28.3257 21.08 27.0706 20.5475 25.7306 20.5475C25.4472 20.5475 25.1613 20.5723 24.8812 20.6209C22.974 20.9524 21.4288 22.3801 20.9447 24.2584C20.9284 24.3215 20.9423 24.3885 20.9821 24.4399C21.022 24.4914 21.0834 24.5215 21.1485 24.5215H22.4897C22.578 24.5215 22.6571 24.4664 22.6874 24.3833C23.0801 23.3101 24.0554 22.4911 25.1721 22.2971C25.356 22.2652 25.5432 22.249 25.7288 22.249C26.6162 22.249 27.445 22.6043 28.0629 23.2493L27.1737 24.1384C27.1136 24.1986 27.0956 24.2892 27.128 24.3678C27.1608 24.4466 27.2374 24.4979 27.3226 24.4979H30.2898C30.406 24.4979 30.5004 24.4035 30.5004 24.2873V21.3202C30.5004 21.2351 30.4489 21.1583 30.3703 21.1257Z" fill="#FAFAFA"/>
<path d="M30.2364 26.4784H28.8953C28.807 26.4784 28.7279 26.5335 28.6976 26.6165C28.305 27.6898 27.3297 28.5088 26.213 28.7028C26.0289 28.7347 25.8418 28.7508 25.6562 28.7508C24.7688 28.7508 23.94 28.3955 23.3221 27.7505L24.2112 26.8614C24.2714 26.8012 24.2894 26.7107 24.2569 26.632C24.2242 26.5533 24.1475 26.502 24.0623 26.502H21.0953C20.9791 26.502 20.8848 26.5963 20.8848 26.7126V29.6798C20.8848 29.7649 20.936 29.8417 21.0148 29.8743C21.0933 29.907 21.184 29.8889 21.2442 29.8285L22.1198 28.953C23.0592 29.9199 24.3144 30.4525 25.6543 30.4525C25.9378 30.4525 26.2237 30.4278 26.5039 30.3791C28.4109 30.0479 29.9562 28.6199 30.4403 26.7416C30.4567 26.6784 30.4428 26.6117 30.4031 26.56C30.3631 26.5086 30.3016 26.4784 30.2364 26.4784Z" fill="#FAFAFA"/>
</g>
<circle opacity="0.4" cx="25.7192" cy="25.5" r="25" fill="#FAFAFA"/>
<defs>
<clipPath id="clip0_890_5235">
<rect width="9.90494" height="9.90494" fill="white" transform="translate(20.7402 20.5475)"/>
</clipPath>
</defs>
</svg>
