<svg width="31" height="31" viewBox="0 0 31 31" fill="none" xmlns="http://www.w3.org/2000/svg">
<g clip-path="url(#clip0_893_5538)">
<path d="M15.5854 1.6875C7.34658 1.6875 0.644043 7.60125 0.644043 14.8711C0.644043 17.9421 1.85939 20.9179 4.07125 23.2765C4.509 25.0815 3.97768 26.9938 2.65932 28.3121C2.10807 28.8635 2.49789 29.8125 3.28076 29.8125C5.78529 29.8125 8.19971 28.8315 9.99356 27.1011C11.7685 27.7345 13.6465 28.0547 15.5854 28.0547C23.8243 28.0547 30.644 22.1409 30.644 14.8711C30.644 7.60125 23.8243 1.6875 15.5854 1.6875ZM8.67139 17.5078C7.21744 17.5078 6.03467 16.325 6.03467 14.8711C6.03467 13.4171 7.21744 12.2344 8.67139 12.2344C10.1253 12.2344 11.3081 13.4171 11.3081 14.8711C11.3081 16.325 10.1253 17.5078 8.67139 17.5078ZM15.7026 17.5078C14.2487 17.5078 13.0659 16.325 13.0659 14.8711C13.0659 13.4171 14.2487 12.2344 15.7026 12.2344C17.1566 12.2344 18.3394 13.4171 18.3394 14.8711C18.3394 16.325 17.1566 17.5078 15.7026 17.5078ZM22.7339 17.5078C21.2799 17.5078 20.0972 16.325 20.0972 14.8711C20.0972 13.4171 21.2799 12.2344 22.7339 12.2344C24.1878 12.2344 25.3706 13.4171 25.3706 14.8711C25.3706 16.325 24.1878 17.5078 22.7339 17.5078Z" fill="#FAFAFA"/>
</g>
<defs>
<clipPath id="clip0_893_5538">
<rect width="30" height="30" fill="white" transform="translate(0.644043 0.75)"/>
</clipPath>
</defs>
</svg>
