<svg width="25" height="25" viewBox="0 0 25 25" fill="none" xmlns="http://www.w3.org/2000/svg">
<g clip-path="url(#clip0_890_5352)">
<path d="M10.9663 24.0285C8.64009 24.0285 6.74756 22.136 6.74756 19.8098V5.6535C6.74756 2.55188 9.27093 0.0285034 12.3726 0.0285034C15.4742 0.0285034 17.9976 2.55188 17.9976 5.6535V19.8098H16.5913V5.6535C16.5913 3.32728 14.6988 1.43475 12.3726 1.43475C10.0463 1.43475 8.15381 3.32728 8.15381 5.6535V19.8098C8.15381 21.3606 9.4155 22.6223 10.9663 22.6223C12.5171 22.6223 13.7788 21.3606 13.7788 19.8098V8.466C13.7788 7.6906 13.148 7.05975 12.3726 7.05975C11.5972 7.05975 10.9663 7.6906 10.9663 8.466V19.8098H9.56006V8.466C9.56006 6.91519 10.8217 5.6535 12.3726 5.6535C13.9234 5.6535 15.1851 6.91519 15.1851 8.466V19.8098C15.1851 22.136 13.2925 24.0285 10.9663 24.0285Z" fill="#FAFAFA"/>
</g>
<defs>
<clipPath id="clip0_890_5352">
<rect width="24" height="24" fill="white" transform="translate(0.372559 0.0285034)"/>
</clipPath>
</defs>
</svg>
