<svg width="22" height="21" viewBox="0 0 22 21" fill="none" xmlns="http://www.w3.org/2000/svg">
<g clip-path="url(#clip0_890_5309)">
<path d="M20.3965 9.75001H8.28998C7.88327 8.15199 6.25809 7.18625 4.66002 7.59296C3.60023 7.8627 2.7727 8.69023 2.50296 9.75001H0.896499C0.48227 9.75001 0.146484 10.0858 0.146484 10.5C0.146484 10.9143 0.48227 11.25 0.896499 11.25H2.50301C2.90972 12.848 4.5349 13.8138 6.13297 13.4071C7.19276 13.1373 8.02029 12.3098 8.29003 11.25H20.3965C20.8107 11.25 21.1465 10.9142 21.1465 10.5C21.1465 10.0858 20.8107 9.75001 20.3965 9.75001Z" fill="#FAFAFA"/>
<path d="M20.3965 2.24971H18.04C17.6333 0.651682 16.0081 -0.31406 14.41 0.0926538C13.3502 0.36239 12.5227 1.18992 12.253 2.24971H0.896499C0.48227 2.24971 0.146484 2.58549 0.146484 2.99972C0.146484 3.41395 0.48227 3.74974 0.896499 3.74974H12.253C12.6597 5.34776 14.2849 6.3135 15.8829 5.90679C16.9427 5.63705 17.7703 4.80952 18.04 3.74974H20.3965C20.8107 3.74974 21.1465 3.41395 21.1465 2.99972C21.1465 2.58549 20.8107 2.24971 20.3965 2.24971Z" fill="#FAFAFA"/>
<path d="M20.3965 17.25H16.54C16.1333 15.652 14.5081 14.6862 12.91 15.093C11.8502 15.3627 11.0227 16.1902 10.7529 17.25H0.896499C0.48227 17.25 0.146484 17.5858 0.146484 18C0.146484 18.4142 0.48227 18.75 0.896499 18.75H10.753C11.1597 20.348 12.7849 21.3138 14.383 20.9071C15.4427 20.6373 16.2703 19.8098 16.54 18.75H20.3965C20.8107 18.75 21.1465 18.4142 21.1465 18C21.1465 17.5858 20.8107 17.25 20.3965 17.25Z" fill="#FAFAFA"/>
</g>
<defs>
<clipPath id="clip0_890_5309">
<rect width="21" height="21" fill="white" transform="translate(0.146484)"/>
</clipPath>
</defs>
</svg>
