<svg width="160" height="160" viewBox="0 0 160 160" fill="none" xmlns="http://www.w3.org/2000/svg">
<g clip-path="url(#clip0_890_5362)">
<path fill-rule="evenodd" clip-rule="evenodd" d="M34.3919 117.739C33.7848 118.327 33.7686 119.301 34.3595 119.905C34.7966 120.348 35.4279 120.469 35.9784 120.276C36.2698 120.582 36.5531 120.888 36.8525 121.186C41.612 126.059 47.0918 130.038 53.1545 133.042L51.8189 135.982C51.6894 136.272 51.8108 136.61 52.0941 136.755L52.0213 136.908L52.4017 137.093C64.4703 142.796 78.3925 144.608 91.5943 142.192C91.5943 142.192 91.5943 142.192 91.6024 142.192C91.6267 142.184 91.659 142.184 91.6833 142.176V142.168C91.9666 142.087 92.1447 141.813 92.1042 141.515L91.6105 138.157C100.717 136.377 109.345 132.47 116.67 126.832C117.269 127.299 118.127 127.267 118.686 126.727C119.301 126.139 119.309 125.165 118.718 124.561C118.127 123.957 117.148 123.941 116.541 124.529C116.193 124.867 116.047 125.326 116.088 125.777C108.73 131.48 100.02 135.386 90.8334 137.093C90.712 137.118 90.6068 137.174 90.5258 137.255C90.3963 137.383 90.3235 137.569 90.3478 137.77L90.8415 141.121C78.1011 143.328 64.7212 141.556 53.0816 136.095L54.4738 133.01C54.6033 132.72 54.4819 132.374 54.1905 132.237C48.047 129.273 42.5024 125.278 37.7024 120.364C37.4191 120.075 37.1358 119.777 36.8606 119.479C37.1197 118.923 37.0306 118.238 36.5692 117.771C36.2698 117.465 35.865 117.304 35.4603 117.304C35.0718 117.304 34.6914 117.449 34.3919 117.739Z" fill="#FAFAFA"/>
<path fill-rule="evenodd" clip-rule="evenodd" d="M36.9007 42.3819C36.4231 42.841 36.3179 43.5337 36.5769 44.1055C28.685 53.6661 24.2007 65.6752 23.8851 78.1353L21.1087 78.095C21.3435 68.462 23.9498 59.0383 28.6688 50.7101C29.114 50.7665 29.5835 50.6296 29.9315 50.2913C30.5386 49.7033 30.5548 48.7288 29.9639 48.1247C29.373 47.5206 28.3936 47.5045 27.7865 48.0925C27.2199 48.6402 27.1714 49.51 27.6408 50.1141C22.7114 58.7967 20.0322 68.6311 19.8946 78.6749C19.7732 86.8904 21.3839 95.1783 24.565 102.717C23.9903 103.313 23.9903 104.248 24.565 104.844C25.1559 105.448 26.1353 105.464 26.7424 104.876C27.3494 104.288 27.3656 103.313 26.7747 102.709C26.4671 102.395 26.0624 102.242 25.6577 102.25C22.6224 95.0414 21.0521 87.1481 21.0844 79.287L24.4598 79.3354C24.7916 79.3434 25.0587 79.0776 25.0668 78.7474C25.2449 66.3759 29.632 54.4232 37.4592 44.9271C37.9934 45.1204 38.6248 45.0157 39.0619 44.5888C39.6689 44.0008 39.6851 43.0263 39.0943 42.4222C38.7948 42.1161 38.39 41.955 37.9853 41.955C37.5887 41.947 37.2002 42.092 36.9007 42.3819Z" fill="#FAFAFA"/>
<path fill-rule="evenodd" clip-rule="evenodd" d="M25.0603 91.9564C24.4533 92.5444 24.4371 93.519 25.028 94.123C25.2789 94.3808 25.5946 94.5258 25.9264 94.566C28.4276 103.514 33.1708 111.746 39.7029 118.431C61.258 140.508 96.8487 141.024 119.035 119.567C120.209 118.431 121.334 117.247 122.402 116.015C122.92 116.176 123.511 116.063 123.932 115.66C124.539 115.072 124.555 114.098 123.965 113.494C123.374 112.89 122.394 112.874 121.787 113.462C121.293 113.937 121.196 114.67 121.496 115.25C120.452 116.45 119.359 117.61 118.21 118.713C106.27 130.255 90.3732 135.297 74.9698 133.912L75.2531 131.149C85.6786 132.075 96.2983 129.836 105.372 124.794C105.971 125.253 106.821 125.221 107.379 124.681C107.986 124.093 108.003 123.119 107.412 122.515C106.821 121.911 105.841 121.895 105.234 122.482C104.878 122.829 104.733 123.304 104.781 123.763C95.7479 128.773 85.1524 130.964 74.7836 129.917C74.7836 129.917 74.7836 129.917 74.7755 129.917C74.5894 129.901 74.4194 129.965 74.298 130.078C74.2008 130.174 74.1361 130.303 74.1199 130.44L73.7799 133.783C61.5818 132.422 49.7641 127.017 40.5609 117.585C34.1664 111.037 29.5284 102.991 27.0839 94.2358C27.1244 94.2036 27.1729 94.1714 27.2134 94.1311C27.8205 93.5431 27.8367 92.5685 27.2458 91.9645C26.9463 91.6584 26.5416 91.4973 26.1369 91.4973C25.7484 91.5215 25.3598 91.6665 25.0603 91.9564Z" fill="#FAFAFA"/>
<path fill-rule="evenodd" clip-rule="evenodd" d="M140.023 122.37C139.505 122.869 139.424 123.643 139.764 124.231C137.44 127.307 134.858 130.223 132.066 132.921C131.726 133.251 131.378 133.582 131.022 133.912L128.65 131.488C128.423 131.254 128.059 131.246 127.816 131.463C126.068 133.058 124.222 134.572 122.32 135.99C121.721 135.458 120.807 135.466 120.224 136.03C119.617 136.618 119.601 137.593 120.192 138.197C120.782 138.801 121.762 138.817 122.369 138.229C122.693 137.915 122.838 137.504 122.83 137.085C124.676 135.724 126.473 134.258 128.181 132.72L130.552 135.152C130.779 135.386 131.143 135.394 131.386 135.176C134.794 132.051 137.918 128.612 140.686 124.947C141.188 125.076 141.747 124.955 142.143 124.569C142.75 123.981 142.767 123.006 142.176 122.402C141.876 122.096 141.471 121.935 141.067 121.935C140.711 121.935 140.322 122.08 140.023 122.37Z" fill="#FAFAFA"/>
<path fill-rule="evenodd" clip-rule="evenodd" d="M130.212 115.5C129.686 116.015 129.605 116.813 129.978 117.409C128.084 119.882 125.995 122.225 123.753 124.392C117.925 130.03 111.191 134.412 103.728 137.432C103.137 136.828 102.166 136.812 101.551 137.408C100.943 137.996 100.927 138.97 101.518 139.575C102.109 140.179 103.088 140.195 103.696 139.607C103.995 139.317 104.149 138.93 104.165 138.536C111.774 135.459 118.638 130.989 124.587 125.246C126.886 123.023 129.023 120.623 130.957 118.094C131.443 118.198 131.977 118.069 132.357 117.699C132.965 117.111 132.981 116.136 132.39 115.532C132.09 115.226 131.686 115.065 131.281 115.065C130.892 115.073 130.512 115.21 130.212 115.5Z" fill="#FAFAFA"/>
<path fill-rule="evenodd" clip-rule="evenodd" d="M103.291 153.589C103.016 153.854 102.862 154.209 102.838 154.563C97.1718 156.327 88.0495 157.97 79.3886 157.898C79.3158 157.721 79.2105 157.543 79.0648 157.398C78.474 156.794 77.4946 156.778 76.8875 157.366C76.2804 157.954 76.2642 158.929 76.8551 159.533C77.1546 159.839 77.5431 159.992 77.9397 160H77.9721C78.3526 159.992 78.733 159.855 79.0244 159.565C79.1701 159.42 79.2834 159.259 79.3562 159.082C88.1952 159.17 97.3175 157.543 103.202 155.691C103.218 155.715 103.234 155.731 103.251 155.755C103.841 156.359 104.821 156.375 105.428 155.787C106.035 155.2 106.051 154.225 105.46 153.621C105.161 153.315 104.756 153.154 104.351 153.154C103.979 153.154 103.591 153.299 103.291 153.589Z" fill="#FAFAFA"/>
<path fill-rule="evenodd" clip-rule="evenodd" d="M16.2381 88.501C15.631 89.0889 15.6148 90.0635 16.2057 90.6676C16.4161 90.8851 16.6833 91.03 16.9666 91.0864C19.2491 103.514 25.1175 114.855 33.997 123.948C37.0242 127.049 40.351 129.828 43.9206 132.244C43.8073 132.736 43.9368 133.275 44.3172 133.662C44.9081 134.266 45.8875 134.282 46.4946 133.694C47.1016 133.106 47.1178 132.132 46.5269 131.527C46.017 131.004 45.2238 130.923 44.6248 131.286C41.12 128.91 37.8337 126.171 34.855 123.127C26.1455 114.202 20.3824 103.087 18.1402 90.8931C18.2293 90.8367 18.3102 90.7723 18.3831 90.6998C18.9901 90.1119 19.0063 89.1373 18.4154 88.5332C18.1159 88.2271 17.7112 88.066 17.3065 88.066C16.918 88.066 16.5376 88.211 16.2381 88.501Z" fill="#FAFAFA"/>
<path fill-rule="evenodd" clip-rule="evenodd" d="M11.4051 77.6281C10.798 78.2161 10.7818 79.1907 11.3727 79.7948C11.5346 79.9639 11.7288 80.0767 11.9393 80.1572C12.0526 93.1167 15.8084 105.577 22.8504 116.378C22.389 116.974 22.4214 117.827 22.9637 118.383C23.5546 118.987 24.534 119.003 25.1411 118.415C25.7482 117.828 25.7643 116.853 25.1735 116.249C24.8254 115.894 24.3559 115.749 23.8946 115.798C16.9416 105.166 13.2344 92.8831 13.1372 80.1169C13.291 80.0444 13.4367 79.9558 13.5581 79.835C14.1652 79.2471 14.1814 78.2725 13.5905 77.6684C13.291 77.3623 12.8863 77.2012 12.4816 77.2012C12.0931 77.1932 11.7045 77.3382 11.4051 77.6281Z" fill="#FAFAFA"/>
<path fill-rule="evenodd" clip-rule="evenodd" d="M42.2116 23.1806L40.3094 20.3938C40.1233 20.12 39.7509 20.0555 39.4838 20.2327C36.0356 22.5605 32.7655 25.2184 29.7545 28.126C17.783 39.7082 10.2067 55.1484 8.38551 71.6679L1.65915 70.9914C2.08005 67.1736 2.77616 63.3639 3.74748 59.6508C4.07125 59.6025 4.37074 59.4656 4.61357 59.232C5.22064 58.644 5.23683 57.6694 4.64594 57.0654C4.05506 56.4613 3.07565 56.4452 2.46858 57.0331C1.8615 57.6211 1.84532 58.5957 2.4362 59.1998C2.48477 59.2481 2.54143 59.2964 2.59809 59.3367C1.56202 63.3075 0.817339 67.375 0.40453 71.4585C-0.963407 84.9013 1.11683 98.4729 6.40241 110.82C5.82771 111.416 5.81962 112.359 6.40241 112.955C6.99329 113.559 7.9727 113.575 8.57977 112.987C9.18685 112.399 9.20303 111.424 8.61215 110.82C8.30457 110.506 7.89985 110.353 7.49514 110.361C2.36335 98.3843 0.307398 85.2234 1.53773 72.1754L8.84688 72.9164C9.13019 72.9486 9.3973 72.7714 9.47824 72.5056C9.48633 72.4653 9.50252 72.425 9.50252 72.3848C11.178 55.9216 18.6653 40.5056 30.5801 28.9878C33.3969 26.2655 36.4484 23.7686 39.6538 21.5617L41.5479 24.3405C41.6369 24.4693 41.7745 24.5579 41.9283 24.5902C42.0821 24.6224 42.244 24.5902 42.3735 24.5016C56.4899 14.9571 74.176 11.1555 91.1093 13.9906C91.174 14.2242 91.2954 14.4417 91.4735 14.6269C92.0644 15.231 93.0438 15.2471 93.6509 14.6591C94.2579 14.0712 94.2741 13.0966 93.6832 12.4925C93.0924 11.8884 92.113 11.8723 91.5059 12.4603C91.3926 12.565 91.3116 12.6858 91.2388 12.8147C87.5235 12.1945 83.7758 11.8965 80.0363 11.8965C66.6564 11.8723 53.3655 15.7787 42.2116 23.1806Z" fill="#FAFAFA"/>
<path fill-rule="evenodd" clip-rule="evenodd" d="M66.3323 16.5111C66.0895 16.7446 65.9438 17.0507 65.8872 17.3568C56.2307 19.5073 47.1246 23.8889 39.4674 30.1068C38.0347 31.2747 36.6263 32.5151 35.2988 33.8038C26.1846 42.6153 20.0006 53.7303 17.3456 66.0454C17.1028 66.1098 16.8762 66.2307 16.6819 66.4159C16.0748 67.0039 16.0587 67.9785 16.6495 68.5825C17.2404 69.1866 18.2198 69.2027 18.8269 68.6147C19.434 68.0268 19.4502 67.0522 18.8593 66.4481C18.7621 66.3434 18.6488 66.2709 18.5274 66.1984C21.1419 54.1572 27.2045 43.2838 36.1244 34.6575C37.29 33.5299 38.5122 32.4426 39.7588 31.4116L41.8876 34.0132C42.098 34.2709 42.4704 34.3032 42.7294 34.1018C51.7464 26.7804 62.6009 22.3585 74.2081 21.247C74.2728 21.3678 74.3538 21.4887 74.459 21.5934C75.0499 22.1974 76.0293 22.2136 76.6364 21.6256C77.2435 21.0376 77.2596 20.063 76.6688 19.459C76.0779 18.8549 75.0985 18.8388 74.4914 19.4267C74.3052 19.612 74.1757 19.8295 74.1029 20.063C62.4633 21.1745 51.5602 25.5642 42.4542 32.8131L40.6896 30.6626C48.1121 24.7587 56.8782 20.5785 66.1705 18.5166C66.2109 18.573 66.2514 18.6294 66.3 18.6857C66.8909 19.2898 67.8703 19.3059 68.4773 18.718C69.0844 18.13 69.1006 17.1554 68.5097 16.5513C68.2102 16.2453 67.8055 16.0842 67.4008 16.0842C67.0204 16.0761 66.6318 16.2211 66.3323 16.5111Z" fill="#FAFAFA"/>
<path fill-rule="evenodd" clip-rule="evenodd" d="M60.3986 2.37634C60.3986 2.37634 60.3905 2.37634 60.3905 2.38439C46.8002 5.76723 34.2864 12.7101 24.209 22.4559C22.8654 23.7526 21.5622 25.1138 20.3157 26.4992C19.7976 26.3461 19.2148 26.4589 18.802 26.8616C18.195 27.4496 18.1788 28.4242 18.7697 29.0282C19.3605 29.6323 20.3399 29.6484 20.947 29.0605C21.4489 28.5772 21.5379 27.8442 21.2303 27.2563C22.4526 25.9031 23.7234 24.5742 25.0346 23.3096C34.8206 13.8458 46.9378 7.07203 60.091 3.6892L60.86 6.95122C60.8924 7.10425 60.9976 7.24118 61.1271 7.32172C61.2647 7.40226 61.4266 7.42643 61.5804 7.38615C69.6423 5.37256 77.9228 4.70405 86.2113 5.39673C86.2842 5.61419 86.3975 5.82361 86.5675 6.0008C87.1584 6.60488 88.1378 6.62099 88.7448 6.03302C89.3519 5.44505 89.3681 4.47047 88.7772 3.8664C88.1863 3.26232 87.2069 3.24621 86.5999 3.83418C86.4784 3.94694 86.3975 4.07581 86.3247 4.21273C78.1008 3.52811 69.8851 4.15635 61.8799 6.0894L61.1109 2.81933C61.0462 2.54548 60.8033 2.36023 60.5281 2.36023C60.4877 2.36023 60.4391 2.36828 60.3986 2.37634Z" fill="#FAFAFA"/>
<path fill-rule="evenodd" clip-rule="evenodd" d="M31.8666 30.3008C31.4052 30.7518 31.2838 31.4203 31.5104 31.9761C25.1564 38.3793 20.2351 45.8215 16.8759 54.1256C16.5602 54.1659 16.2446 54.3028 16.0017 54.5444C15.3947 55.1324 15.3785 56.107 15.9694 56.711C16.5602 57.3151 17.5397 57.3312 18.1467 56.7432C18.7538 56.1553 18.77 55.1807 18.1791 54.5766C18.1305 54.5283 18.082 54.4961 18.0334 54.4558C21.3359 46.3451 26.1439 39.08 32.3603 32.8218C32.9107 33.0473 33.5664 32.9426 34.0196 32.4996C34.6267 31.9116 34.6429 30.9371 34.052 30.333C33.7525 30.0269 33.3478 29.8658 32.9431 29.8658C32.5546 29.8658 32.166 30.0108 31.8666 30.3008Z" fill="#FAFAFA"/>
<path d="M50.1275 10.0358C50.4189 10.3338 50.5646 10.7204 50.5646 11.107C50.5646 11.5097 50.4108 11.9044 50.0951 12.2024C49.7956 12.4923 49.4071 12.6373 49.0266 12.6373C48.6462 12.6373 48.2739 12.5004 47.9744 12.2265C44.251 13.9663 40.7057 16.0121 37.3385 18.3318C33.9713 20.6595 30.7821 23.261 27.8115 26.1445C24.8247 29.028 22.1131 32.1289 19.6767 35.4231C17.2322 38.7093 15.0792 42.1968 13.2175 45.8535C13.4279 46.1274 13.5331 46.4576 13.5331 46.7798C13.5331 47.1825 13.3713 47.5772 13.0637 47.8752C12.7642 48.1651 12.3757 48.3101 11.9952 48.3101C11.5905 48.3101 11.1858 48.149 10.8863 47.843C10.5949 47.5449 10.4492 47.1583 10.4492 46.7717C10.4492 46.369 10.603 45.9743 10.9187 45.6763C11.2182 45.3864 11.5986 45.2414 11.9871 45.2414C12.0519 45.2414 12.1166 45.2494 12.1814 45.2575C14.0755 41.5525 16.2609 38.0166 18.7297 34.6821C21.1984 31.3476 23.9505 28.2064 26.9778 25.2907C30.005 22.367 33.2347 19.7171 36.6586 17.3491C40.0905 14.9892 43.7006 12.9112 47.4887 11.1392C47.4806 10.7284 47.6263 10.3177 47.9501 10.0035C48.2496 9.71358 48.6381 9.57666 49.0186 9.57666C49.4233 9.57666 49.828 9.72969 50.1275 10.0358Z" fill="#FAFAFA"/>
<path fill-rule="evenodd" clip-rule="evenodd" d="M60.8768 39.1366C60.6016 39.4024 60.4478 39.7568 60.4235 40.1112C56.2873 42.1328 52.5073 44.7827 49.1644 48.0125C38.2452 58.5637 33.5828 74.1247 36.8044 88.9126C36.7477 88.9528 36.6829 88.9931 36.6344 89.0495C36.0273 89.6374 36.0111 90.612 36.602 91.2161C37.1929 91.8202 38.1723 91.8363 38.7794 91.2483C39.3864 90.6604 39.4026 89.6858 38.8118 89.0817C38.577 88.8401 38.2775 88.6951 37.9619 88.6468C34.8375 74.2617 39.3784 59.1356 49.99 48.8663C53.1953 45.7653 56.8297 43.2121 60.7959 41.2468C60.8121 41.2629 60.8202 41.2871 60.8444 41.3032C61.4353 41.9073 62.4147 41.9234 63.0218 41.3354C63.6289 40.7475 63.6451 39.7729 63.0542 39.1688C62.7547 38.8627 62.35 38.7017 61.9534 38.7017C61.5648 38.7017 61.1763 38.8466 60.8768 39.1366Z" fill="#FAFAFA"/>
<path fill-rule="evenodd" clip-rule="evenodd" d="M36.2617 57.6689C35.5575 58.1441 35.3713 59.0945 35.8488 59.7952C35.8893 59.8597 35.9379 59.908 35.9945 59.9644C33.5663 65.393 32.1498 71.3371 31.8746 77.3054C31.6803 77.3779 31.5022 77.4907 31.3484 77.6356C30.7413 78.2236 30.7252 79.1982 31.316 79.8023C31.9069 80.4064 32.8863 80.4225 33.4934 79.8345C34.1005 79.2465 34.1167 78.2719 33.5258 77.6679C33.3882 77.5309 33.2344 77.4262 33.0644 77.3457C33.3396 71.5304 34.7156 65.7474 37.0792 60.4637C37.3949 60.4718 37.7105 60.3912 37.9938 60.206C38.698 59.7308 38.8842 58.7804 38.4066 58.0796C38.1072 57.6447 37.6215 57.4031 37.1277 57.4031C36.8283 57.4031 36.5288 57.4917 36.2617 57.6689Z" fill="#FAFAFA"/>
<path fill-rule="evenodd" clip-rule="evenodd" d="M7.9323 87.3501C7.32523 87.938 7.30904 88.9126 7.89992 89.5167C8.12656 89.7503 8.41796 89.8952 8.71745 89.9516C10.2716 100.583 14.1163 110.531 20.0171 119.302L17.7264 120.848C13.226 114.147 9.88303 106.817 7.77041 99.0289C8.34511 98.4329 8.3532 97.4905 7.77041 96.8945C7.17953 96.2904 6.20012 96.2743 5.59305 96.8623C4.98598 97.4502 4.96979 98.4248 5.56067 99.0289C5.86016 99.335 6.25678 99.488 6.6615 99.496C8.86314 107.55 12.3599 115.113 17.0627 122.016C17.2488 122.29 17.6212 122.354 17.8964 122.177L20.6889 120.292C22.9472 123.53 25.4807 126.599 28.2895 129.474C29.7464 130.964 31.2682 132.398 32.8546 133.759L32.8627 133.767C32.8627 133.767 32.8708 133.767 32.8708 133.775C34.004 134.75 35.1615 135.684 36.3433 136.578C36.2138 137.078 36.3352 137.633 36.7237 138.028C37.3146 138.632 38.294 138.648 38.9011 138.06C39.5082 137.472 39.5243 136.498 38.9335 135.894C38.4316 135.378 37.6627 135.298 37.0637 135.636C36.0519 134.871 35.0644 134.073 34.0931 133.252L35.9143 131.158C46.3074 139.953 58.9264 145.35 72.5329 146.815C72.6057 147.041 72.7191 147.25 72.8971 147.428C73.488 148.032 74.4674 148.048 75.0745 147.46C75.6816 146.872 75.6978 145.897 75.1069 145.293C74.516 144.689 73.5366 144.673 72.9295 145.261C72.8162 145.374 72.7272 145.503 72.6543 145.631C59.0964 144.166 46.5421 138.737 36.2462 129.877C36.0114 129.676 35.6634 129.684 35.4367 129.901C35.4205 129.917 35.4124 129.925 35.4043 129.942L33.1865 132.471C31.7862 131.246 30.4344 129.974 29.1394 128.645C26.2497 125.689 23.6595 122.523 21.3688 119.189C21.3607 119.165 21.3446 119.149 21.3365 119.125C21.3203 119.1 21.3041 119.084 21.2879 119.068C15.3062 110.313 11.4209 100.358 9.87493 89.71C9.93969 89.6617 10.0125 89.6133 10.0692 89.557C10.6763 88.969 10.6925 87.9944 10.1016 87.3903C9.80208 87.0843 9.39737 86.9232 8.99265 86.9232C8.61222 86.9151 8.23179 87.0601 7.9323 87.3501Z" fill="#FAFAFA"/>
<path fill-rule="evenodd" clip-rule="evenodd" d="M60.659 134.895C60.0519 135.483 60.0357 136.457 60.6266 137.061C61.2175 137.666 62.1969 137.682 62.8039 137.094C62.8768 137.029 62.9335 136.957 62.9901 136.876C68.6966 138.535 74.5892 139.349 80.5547 139.293C80.6276 139.454 80.7247 139.607 80.8542 139.736C81.4451 140.34 82.4245 140.356 83.0316 139.768C83.6387 139.18 83.6549 138.205 83.064 137.601C82.4731 136.997 81.4937 136.981 80.8866 137.569C80.7247 137.722 80.6114 137.907 80.5305 138.109C74.6621 138.165 68.8666 137.368 63.2572 135.724C63.2006 135.434 63.0711 135.161 62.8444 134.935C62.5449 134.629 62.1402 134.468 61.7355 134.468C61.347 134.46 60.9585 134.605 60.659 134.895Z" fill="#FAFAFA"/>
<path fill-rule="evenodd" clip-rule="evenodd" d="M117.504 105.955C116.978 106.463 116.897 107.26 117.27 107.864C115.869 109.692 114.331 111.432 112.664 113.043C98.8388 126.413 78.1012 129.957 60.6013 122.104C60.5932 121.734 60.4556 121.363 60.1723 121.073C59.5814 120.469 58.602 120.453 57.9949 121.041C57.3878 121.629 57.3716 122.604 57.9625 123.208C58.5534 123.812 59.5328 123.828 60.1399 123.24C60.148 123.232 60.1561 123.224 60.1642 123.216C78.1012 131.238 99.3325 127.597 113.498 113.905C115.214 112.246 116.808 110.449 118.257 108.565C118.743 108.669 119.277 108.541 119.657 108.17C120.264 107.582 120.281 106.607 119.69 106.003C119.39 105.697 118.985 105.536 118.581 105.536C118.192 105.52 117.804 105.665 117.504 105.955Z" fill="#FAFAFA"/>
<path fill-rule="evenodd" clip-rule="evenodd" d="M40.1396 96.7007C40.0748 96.7088 40.0101 96.7168 39.9453 96.7491L36.3191 98.368C36.2543 98.4002 36.1977 98.4324 36.1491 98.4807C35.971 98.6499 35.9144 98.9157 36.0196 99.1493C38.3103 104.248 41.4751 108.879 45.4171 112.914C47.0197 114.557 48.7519 116.08 50.565 117.473C50.4355 117.972 50.5569 118.52 50.9455 118.923C51.5363 119.527 52.5157 119.543 53.1228 118.955C53.7299 118.367 53.7461 117.392 53.1552 116.788C52.6533 116.273 51.8763 116.192 51.2854 116.531C49.5209 115.177 47.8372 113.687 46.275 112.093C42.576 108.299 39.5811 103.966 37.3713 99.2056L39.9129 98.07C41.9932 102.532 44.8019 106.6 48.2743 110.16C53.7218 115.741 60.4724 119.656 67.7411 121.726C67.7897 121.758 67.8463 121.79 67.9111 121.806C67.9678 121.822 68.0325 121.83 68.0892 121.822C76.0863 124.037 84.6825 124.021 92.8739 121.548C92.9063 121.589 92.9306 121.629 92.9629 121.661C93.5538 122.265 94.5332 122.281 95.1403 121.693C95.7474 121.105 95.7636 120.131 95.1727 119.527C94.5818 118.923 93.6024 118.907 92.9953 119.495C92.7363 119.744 92.5906 120.066 92.5501 120.405C84.7229 122.781 76.491 122.837 68.8257 120.799L69.5785 118.166C81.5824 121.347 94.3875 118.842 104.23 111.408C104.805 111.722 105.541 111.65 106.043 111.166C106.65 110.578 106.667 109.604 106.076 109C105.485 108.396 104.505 108.38 103.898 108.968C103.477 109.37 103.348 109.95 103.494 110.474C93.7966 117.787 81.1372 120.179 69.3438 116.869C69.3438 116.869 69.3438 116.869 69.3357 116.869C69.1252 116.812 68.9067 116.869 68.7529 117.014C68.68 117.086 68.6234 117.175 68.591 117.28L67.6845 120.469C60.7638 118.423 54.3451 114.654 49.1485 109.33C45.6356 105.73 42.8107 101.598 40.7628 97.0471C40.6657 96.8296 40.4472 96.7007 40.2205 96.7007C40.2124 96.7007 40.2124 96.7007 40.2043 96.7007C40.1639 96.6927 40.1558 96.7007 40.1396 96.7007Z" fill="#FAFAFA"/>
<path fill-rule="evenodd" clip-rule="evenodd" d="M76.0709 39.1443C75.8847 39.3215 75.7633 39.539 75.6823 39.7726C66.7705 40.7149 58.3848 44.6132 51.9337 50.8554C36.4007 65.8687 35.7046 90.4346 50.0882 106.31C49.8372 106.865 49.9344 107.542 50.3877 108.009C50.9785 108.613 51.9579 108.629 52.565 108.041C53.1721 107.453 53.1883 106.479 52.5974 105.875C52.1603 105.424 51.5209 105.303 50.9623 105.504C37.0159 90.1043 37.6958 66.2795 52.7674 51.7172C59.0243 45.6684 67.1509 41.8909 75.7876 40.9727C75.8523 41.1015 75.9333 41.2224 76.0385 41.3351C76.6294 41.9392 77.6088 41.9553 78.2159 41.3673C78.8229 40.7794 78.8391 39.8048 78.2482 39.2007C77.9487 38.8946 77.544 38.7336 77.1393 38.7336C76.7589 38.7094 76.3704 38.8544 76.0709 39.1443Z" fill="#FAFAFA"/>
<path fill-rule="evenodd" clip-rule="evenodd" d="M79.6076 27.1997C79.4538 27.3447 79.3486 27.5138 79.2677 27.691C65.8635 27.8521 53.2526 33.023 43.6204 42.3339C26.9866 58.4184 23.069 83.4997 33.8667 103.797C33.3892 104.393 33.4135 105.255 33.9639 105.818C34.5548 106.422 35.5342 106.439 36.1412 105.851C36.7483 105.263 36.7645 104.288 36.1736 103.684C35.8337 103.338 35.3642 103.193 34.919 103.233C24.4693 83.5722 28.136 59.3286 44.0251 43.6065L46.3805 46.0147C46.6072 46.2483 46.9876 46.2563 47.2223 46.0228C52.7993 40.6344 59.6471 36.7039 67.0938 34.6097C67.1262 34.65 67.1586 34.6983 67.1991 34.7386C67.7899 35.3427 68.7694 35.3588 69.3764 34.7708C69.9835 34.1828 69.9997 33.2083 69.4088 32.6042C68.8179 32.0001 67.8385 31.984 67.2314 32.572C66.9724 32.8217 66.8267 33.1358 66.7863 33.466C59.3395 35.5601 52.4674 39.4423 46.8257 44.7663L44.8831 42.7769C54.232 33.9412 66.3653 29.0442 79.2596 28.8831C79.3324 29.0603 79.4376 29.2214 79.5752 29.3663C80.1661 29.9704 81.1455 29.9865 81.7526 29.3985C82.3597 28.8106 82.3759 27.836 81.785 27.2319C81.4855 26.9259 81.0808 26.7648 80.6761 26.7648C80.2956 26.7648 79.9071 26.9097 79.6076 27.1997Z" fill="#FAFAFA"/>
<path fill-rule="evenodd" clip-rule="evenodd" d="M84.4956 23.5107C84.3742 23.6235 84.2851 23.7604 84.2123 23.8974C83.0548 23.8088 81.8973 23.7524 80.7479 23.7363C69.6183 23.5752 58.9014 26.6278 49.6334 32.5558C49.0425 32.137 48.2169 32.1853 47.6746 32.7088C47.0675 33.2968 47.0513 34.2714 47.6422 34.8755C48.2331 35.4795 49.2125 35.4956 49.8196 34.9077C50.1919 34.5452 50.3457 34.0378 50.2648 33.5626C59.3385 27.7554 69.8368 24.7672 80.7317 24.9283C81.8568 24.9444 82.982 25.0008 84.1071 25.0813C84.1799 25.2988 84.2932 25.5082 84.4632 25.6774C85.0541 26.2814 86.0335 26.2976 86.6406 25.7096C87.2477 25.1216 87.2639 24.147 86.673 23.543C86.3735 23.2369 85.9688 23.0758 85.564 23.0758C85.1836 23.0758 84.7951 23.2208 84.4956 23.5107Z" fill="#FAFAFA"/>
<path fill-rule="evenodd" clip-rule="evenodd" d="M68.6073 0.789328C68.5507 0.692676 68.4778 0.596023 68.3969 0.51548C67.806 -0.0885981 66.8266 -0.104707 66.2195 0.483262C65.6124 1.07123 65.5963 2.04581 66.1871 2.64989C66.778 3.25396 67.7574 3.27007 68.3645 2.6821C68.575 2.48075 68.7126 2.23106 68.7773 1.96527C79.1704 0.499371 89.9277 1.11956 100.07 3.76139C100.11 4.07551 100.248 4.37352 100.491 4.61515C101.082 5.21923 102.061 5.23534 102.668 4.64737C103.275 4.0594 103.291 3.08482 102.701 2.48075C102.11 1.87667 101.13 1.86056 100.523 2.44853C100.467 2.49685 100.426 2.55323 100.386 2.60962C93.7159 0.877926 86.7952 0 79.8827 0C76.1027 0 72.3307 0.25774 68.6073 0.789328Z" fill="#FAFAFA"/>
<path fill-rule="evenodd" clip-rule="evenodd" d="M140.355 128.403C139.861 128.886 139.764 129.611 140.063 130.199C138.42 132.132 136.672 134 134.842 135.764C129.015 141.394 120.799 147 112.769 150.834L111.401 147.733C111.393 147.725 111.393 147.717 111.385 147.701C111.369 147.677 111.361 147.653 111.345 147.628C111.337 147.612 111.329 147.604 111.312 147.596C111.296 147.58 111.28 147.556 111.264 147.54C111.248 147.532 111.231 147.516 111.223 147.508C111.207 147.492 111.191 147.483 111.175 147.467C111.159 147.459 111.142 147.451 111.126 147.443C111.11 147.435 111.094 147.427 111.078 147.419C111.061 147.411 111.037 147.411 111.021 147.403C111.005 147.395 110.989 147.395 110.964 147.387C110.948 147.387 110.924 147.387 110.908 147.379C110.891 147.379 110.875 147.371 110.851 147.371C110.827 147.371 110.811 147.379 110.786 147.379C110.77 147.379 110.746 147.379 110.73 147.387C110.713 147.395 110.689 147.403 110.673 147.403C110.657 147.411 110.641 147.411 110.616 147.419C98.6205 152.775 85.3216 154.885 72.1602 153.524C71.9741 153.508 71.8041 153.573 71.6827 153.693C71.5936 153.774 71.537 153.887 71.5127 154.007L70.8651 157.366C63.5155 156.529 56.3683 154.676 49.5771 151.865C49.5771 151.478 49.4314 151.092 49.14 150.786C48.5492 150.182 47.5697 150.166 46.9627 150.754C46.3556 151.341 46.3394 152.316 46.9303 152.92C47.5212 153.524 48.5006 153.54 49.1077 152.952C56.174 155.884 63.6288 157.785 71.286 158.607C71.5936 158.639 71.8769 158.437 71.9336 158.131L72.5811 154.765C85.5725 156.013 98.6691 153.927 110.551 148.74L111.928 151.865C111.928 151.865 111.928 151.873 111.936 151.873V151.881C111.944 151.897 111.952 151.913 111.96 151.921C111.968 151.938 111.984 151.962 111.992 151.978C112 151.994 112.017 152.002 112.033 152.018C112.049 152.034 112.057 152.05 112.073 152.066C112.089 152.083 112.106 152.091 112.114 152.099C112.13 152.107 112.146 152.123 112.162 152.131C112.178 152.139 112.195 152.147 112.211 152.155C112.227 152.163 112.243 152.171 112.267 152.179C112.284 152.187 112.3 152.187 112.316 152.195C112.332 152.203 112.357 152.203 112.373 152.211C112.389 152.211 112.413 152.211 112.429 152.219C112.446 152.219 112.47 152.227 112.486 152.219C112.502 152.219 112.526 152.211 112.543 152.211C112.559 152.211 112.583 152.211 112.599 152.203C112.616 152.195 112.64 152.195 112.656 152.187C112.672 152.179 112.688 152.179 112.705 152.171C112.705 152.171 112.713 152.171 112.713 152.163H112.721C121.042 148.265 129.614 142.45 135.668 136.602C137.522 134.806 139.294 132.905 140.97 130.948C141.488 131.109 142.079 130.996 142.5 130.585C143.107 129.997 143.123 129.023 142.532 128.419C142.233 128.113 141.828 127.952 141.423 127.952C141.043 127.968 140.654 128.113 140.355 128.403Z" fill="#FAFAFA"/>
<path fill-rule="evenodd" clip-rule="evenodd" d="M25.4409 131.391L22.5836 134.154C22.3488 134.379 22.3407 134.758 22.5674 134.991C27.1245 139.655 32.2239 143.73 37.728 147.137C37.6552 147.596 37.7928 148.08 38.1408 148.442C38.7317 149.046 39.7111 149.062 40.3182 148.474C40.9253 147.886 40.9414 146.912 40.3506 146.308C39.8163 145.76 38.9664 145.696 38.3594 146.131C33.1062 142.885 28.2253 139.002 23.8463 134.589L25.8375 132.656C33.5271 140.412 42.7384 146.372 52.8724 150.198C52.8886 150.206 52.8967 150.214 52.9129 150.214C52.9291 150.222 52.9372 150.222 52.9534 150.222C55.584 151.213 58.2794 152.067 61.0315 152.759C61.0801 153.057 61.2177 153.355 61.4443 153.589C62.0352 154.193 63.0146 154.209 63.6217 153.621C64.2287 153.033 64.2449 152.059 63.654 151.455C63.0632 150.85 62.0837 150.834 61.4767 151.422C61.42 151.479 61.3633 151.543 61.3148 151.608C58.7975 150.971 56.3206 150.198 53.8923 149.304L54.8879 146.71C74.2252 153.814 95.5294 152.413 113.661 142.852C114.26 143.336 115.134 143.312 115.692 142.764C116.299 142.176 116.316 141.201 115.725 140.597C115.134 139.993 114.154 139.977 113.547 140.565C113.199 140.903 113.054 141.362 113.094 141.805C106.044 145.518 98.5162 147.983 90.8023 149.175L90.3409 146.412C92.0731 146.147 93.7729 145.825 95.4727 145.43C95.5132 145.486 95.5537 145.543 95.6022 145.591C96.1931 146.195 97.1725 146.211 97.7796 145.623C98.3867 145.035 98.4029 144.061 97.812 143.457C97.2211 142.852 96.2417 142.836 95.6346 143.424C95.3918 143.666 95.2461 143.964 95.1894 144.278C93.3277 144.705 91.4822 145.059 89.572 145.325C89.4425 145.341 89.3291 145.398 89.2401 145.486C89.2158 145.51 89.1915 145.535 89.1754 145.559C89.0782 145.688 89.0458 145.849 89.0701 146.01L89.6205 149.344C78.0052 150.931 66.0257 149.65 54.7503 145.398C54.5237 145.317 54.2808 145.373 54.119 145.526C54.0623 145.583 54.0137 145.655 53.9814 145.744L52.7834 148.885C42.8355 145.043 33.8023 139.107 26.2827 131.399C26.1693 131.278 26.0075 131.222 25.8537 131.222C25.708 131.222 25.5623 131.278 25.4409 131.391Z" fill="#FAFAFA"/>
<path fill-rule="evenodd" clip-rule="evenodd" d="M77.8353 56.7535C80.3258 56.7535 83.2802 57.0677 86.7147 57.704L86.6171 59.4518C83.0849 58.7832 80.0084 58.453 77.3877 58.453C74.4252 58.453 72.1952 58.9927 70.7058 60.0719C69.2001 61.1593 68.1746 62.9151 67.6212 65.3475C67.0678 67.78 66.791 71.2997 66.791 75.931C66.791 79.4266 67.0678 82.2214 67.6212 84.3156C68.1746 86.4097 69.2734 88.0367 70.9255 89.1804C72.5696 90.3241 75.0112 90.904 78.2423 90.904C80.4967 90.904 83.2883 90.5577 86.6171 89.857L86.7717 91.6048C83.2395 92.2733 80.277 92.6035 77.8923 92.6035C74.3601 92.6035 71.6417 91.9189 69.7454 90.5577C67.8409 89.1965 66.5469 87.2313 65.8632 84.67C65.1714 82.1087 64.8296 78.75 64.8296 74.5859C64.8296 70.6956 65.147 67.482 65.79 64.9529C66.4167 62.4158 67.6863 60.4183 69.5908 58.9524C71.4871 57.4865 74.238 56.7535 77.8353 56.7535ZM95.4395 57.2046V73.7321H116.527V57.2046H118.244V92.1525H116.527V75.4799H95.4395V92.1525H93.5757V57.2046H95.4395ZM128.638 67.192V92.1525H126.92V67.192H128.638ZM150.075 57.2046C153.705 57.2046 156.358 58.0583 158.019 59.7739C159.687 61.4895 160.517 64.1958 160.517 67.8847C160.517 71.7749 159.663 74.6664 157.945 76.5431C156.228 78.4278 153.607 79.3621 150.075 79.3621H139.08V92.1525H137.216V57.2046H150.075ZM150.026 58.9524H139.08V77.6224H150.026C155.74 77.6224 158.605 74.3765 158.605 67.8847C158.605 64.824 157.921 62.5688 156.562 61.119C155.203 59.6692 153.021 58.9524 150.026 58.9524ZM128.589 57.2046V59.9511H126.871V57.2046H128.589Z" fill="#FAFAFA"/>
</g>
<defs>
<clipPath id="clip0_890_5362">
<rect width="160" height="160" fill="white"/>
</clipPath>
</defs>
</svg>
