<svg width="21" height="21" viewBox="0 0 21 21" fill="none" xmlns="http://www.w3.org/2000/svg">
<g clip-path="url(#clip0_1163_7333)">
<path d="M13.9755 12.0835L14.4857 9.96496C14.4873 9.95832 14.489 9.95173 14.4908 9.94509C14.6258 9.44064 15.0232 9.04333 15.5277 8.90816L17.0757 8.49335C16.8217 8.19045 16.4408 7.99749 16.0155 7.99749H15.5589C15.4423 7.631 15.2943 7.2738 15.1172 6.93182L15.4403 6.60878C15.9798 6.06924 15.9798 5.19135 15.4403 4.6519L14.4636 3.67513C14.2022 3.41383 13.8547 3.26988 13.4851 3.26988C13.1156 3.26988 12.7681 3.41388 12.5067 3.67522L12.1836 3.99826C11.8415 3.82121 11.4843 3.67313 11.118 3.55652V3.09998C11.118 2.33702 10.4972 1.71634 9.73429 1.71634H8.35292C7.58996 1.71634 6.96923 2.33702 6.96923 3.09998V3.55657C6.60283 3.67318 6.24563 3.82121 5.90356 3.9983L5.58048 3.67517C5.31909 3.41388 4.97159 3.26993 4.60204 3.26993C4.23249 3.26993 3.88499 3.41392 3.62355 3.67527L2.64692 4.65195C2.10742 5.19139 2.10742 6.06929 2.64692 6.60883L2.96995 6.93187C2.79286 7.27384 2.64483 7.63109 2.52827 7.99753H2.07163C1.30872 7.99758 0.687988 8.61826 0.687988 9.38127V10.7626C0.687988 11.5256 1.30872 12.1463 2.07168 12.1463H2.52831C2.64487 12.5128 2.79291 12.8699 2.97 13.2119L2.64692 13.535C2.10738 14.0745 2.10738 14.9523 2.64692 15.492L3.62364 16.4686C3.88508 16.73 4.23258 16.8739 4.60213 16.8739C4.97168 16.8739 5.31918 16.7299 5.58053 16.4686L5.90361 16.1456C6.24554 16.3226 6.60274 16.4706 6.96927 16.5872V17.0439C6.96927 17.8068 7.59 18.4276 8.35296 18.4276H9.55102C9.44017 18.1634 9.38187 17.8774 9.38182 17.5824C9.38173 16.9988 9.60891 16.4501 10.0215 16.0375L13.9755 12.0835ZM9.0436 13.7855C6.99592 13.7855 5.33 12.1196 5.33 10.072C5.33 8.02422 6.99592 6.35825 9.0436 6.35825C11.0913 6.35825 12.7572 8.02422 12.7572 10.072C12.7572 12.1196 11.0913 13.7855 9.0436 13.7855Z" fill="#FAFAFA"/>
<path d="M20.4291 10.6536L20.4143 10.6388C20.3707 10.5951 20.3127 10.5725 20.25 10.5706C20.1884 10.5706 20.1294 10.595 20.0858 10.6386L19.0833 11.6411C18.93 11.7945 18.7259 11.879 18.5089 11.879C18.2918 11.879 18.0878 11.7945 17.9342 11.6409C17.7807 11.4875 17.6962 11.2834 17.6962 11.0664C17.6962 10.8493 17.7807 10.6452 17.9342 10.4918L18.9366 9.48933C18.9802 9.44574 19.0046 9.3866 19.0046 9.32505C19.0046 9.2634 18.98 9.20436 18.9364 9.16086L18.9218 9.14633C18.7544 8.97899 18.5319 8.88675 18.2952 8.88675C18.2179 8.88675 18.1408 8.89691 18.066 8.91692L16.0074 9.46862C15.7025 9.55032 15.4624 9.79041 15.3808 10.0951C15.3803 10.097 15.3798 10.0988 15.3794 10.1007L14.8308 12.3782L10.7613 16.4477C10.4583 16.7507 10.2915 17.1536 10.2915 17.5822C10.2916 18.0108 10.4585 18.4136 10.7616 18.7167L10.8585 18.8136C11.1615 19.1167 11.5645 19.2836 11.9931 19.2836C12.4216 19.2836 12.8245 19.1168 13.1275 18.8138L17.197 14.7443L19.4744 14.1958C19.4763 14.1953 19.4782 14.1948 19.4801 14.1944C19.7847 14.1128 20.0248 13.8728 20.1066 13.5679L20.6582 11.5091C20.7398 11.2044 20.6519 10.8765 20.4291 10.6536ZM12.6302 17.6014C12.5426 17.6891 12.426 17.7374 12.302 17.7374C12.178 17.7374 12.0614 17.6891 11.9737 17.6013C11.8861 17.5138 11.8378 17.3972 11.8378 17.2732C11.8378 17.1492 11.8861 17.0325 11.9739 16.945C12.0614 16.8574 12.178 16.809 12.302 16.809C12.426 16.809 12.5426 16.8574 12.6303 16.945C12.7179 17.0325 12.7662 17.1491 12.7662 17.2731C12.7662 17.3972 12.7179 17.5138 12.6302 17.6014ZM15.366 14.7015L13.4454 16.6221C13.3796 16.6879 13.2922 16.7241 13.1992 16.7241C13.1062 16.7241 13.0188 16.6879 12.953 16.6221C12.8873 16.5564 12.8511 16.469 12.8511 16.376C12.8511 16.283 12.8873 16.1955 12.953 16.1298L14.8736 14.2092C14.9394 14.1434 15.0268 14.1072 15.1198 14.1072C15.2128 14.1072 15.3002 14.1434 15.366 14.2092C15.4317 14.2749 15.4679 14.3623 15.4679 14.4553C15.4679 14.5484 15.4317 14.6358 15.366 14.7015Z" fill="#FAFAFA"/>
</g>
<defs>
<clipPath id="clip0_1163_7333">
<rect width="20" height="20" fill="white" transform="translate(0.687988 0.5)"/>
</clipPath>
</defs>
</svg>
