<svg width="19" height="21" viewBox="0 0 19 21" fill="none" xmlns="http://www.w3.org/2000/svg">
<path fill-rule="evenodd" clip-rule="evenodd" d="M12.9287 8.18658C12.8104 8.41467 12.636 8.59486 12.4312 8.71903L12.7703 11.8505L11.1797 11.0251L10.9645 9.03827L9.21617 10.0063L7.62554 9.18093L10.3811 7.65525C10.3647 7.41635 10.4117 7.17008 10.5301 6.94195C10.8738 6.27958 11.6893 6.02124 12.3517 6.36494C13.0141 6.70863 13.2724 7.52421 12.9287 8.18658ZM6.968 9.54499L3.97418 11.2026L4.69711 12.5083L8.55862 10.3703L6.968 9.54499ZM11.2606 11.7724L11.7357 16.1605L13.2196 15.9998L12.8512 12.5977L11.2606 11.7724Z" fill="#C4C4C4"/>
<path d="M13.9222 7.26805C13.7157 6.61625 13.2678 6.08391 12.661 5.76903C12.0541 5.45413 11.361 5.39439 10.7092 5.60089L10.3336 4.41515C11.302 4.10837 12.3321 4.19714 13.2338 4.66502C13.2339 4.66504 13.2338 4.665 13.2338 4.66502C14.1355 5.13291 14.8011 5.92398 15.1079 6.89245L13.9222 7.26805Z" fill="#C4C4C4"/>
<path d="M16.0274 6.60117C15.2335 4.09472 12.5483 2.70145 10.0419 3.49539L9.66639 2.30964C12.8266 1.30869 16.212 3.06531 17.2131 6.22555L16.0274 6.60117Z" fill="#C4C4C4"/>
<path d="M8.51825 20.5512C9.88547 20.5512 11.1922 20.2925 12.3925 19.8216L8.51825 13.9914L4.64404 19.8217C5.8443 20.2925 7.15103 20.5512 8.51825 20.5512Z" fill="#C4C4C4"/>
<path d="M3.3501 7.66788C2.28211 11.0765 3.77818 14.8629 7.05884 16.5652C10.3395 18.2675 14.2967 17.3107 16.4688 14.475L3.3501 7.66788Z" fill="#C4C4C4"/>
</svg>
