<svg width="19" height="25" viewBox="0 0 19 25" fill="none" xmlns="http://www.w3.org/2000/svg">
<path d="M18.1059 9.17139H16.6059V7.17137C16.6059 3.31154 13.4658 0.171387 9.60596 0.171387C5.74608 0.171387 2.60597 3.31154 2.60597 7.17137V9.17139H1.10597C0.829598 9.17139 0.605957 9.39503 0.605957 9.6714V22.1714C0.605957 23.2744 1.50291 24.1714 2.60597 24.1714H16.606C17.709 24.1714 18.606 23.2744 18.606 22.1714V9.6714C18.606 9.39503 18.3823 9.17139 18.1059 9.17139ZM11.1031 19.6162C11.1187 19.7573 11.0733 19.8989 10.9786 20.0049C10.8838 20.1108 10.7481 20.1714 10.606 20.1714H8.60597C8.4639 20.1714 8.32814 20.1108 8.23341 20.0049C8.13868 19.899 8.09325 19.7574 8.10891 19.6162L8.42433 16.7798C7.91213 16.4072 7.60599 15.8179 7.60599 15.1714C7.60599 14.0684 8.50294 13.1714 9.606 13.1714C10.7091 13.1714 11.606 14.0683 11.606 15.1714C11.606 15.8179 11.2999 16.4072 10.7877 16.7798L11.1031 19.6162ZM13.6059 9.17139H5.60597V7.17137C5.60597 4.96581 7.40039 3.17139 9.60596 3.17139C11.8115 3.17139 13.6059 4.96581 13.6059 7.17137V9.17139Z" fill="#FAFAFA"/>
</svg>
