<svg width="51" height="50" viewBox="0 0 51 50" fill="none" xmlns="http://www.w3.org/2000/svg">
<circle cx="25.7192" cy="25" r="25" fill="#FAFAFA" fill-opacity="0.4"/>
<path d="M25.4984 33.0266L21.6367 29.1658H17.2067C16.9304 29.1658 16.6655 29.056 16.4701 28.8607C16.2748 28.6653 16.165 28.4004 16.165 28.1241V21.8741C16.165 21.5979 16.2748 21.3329 16.4701 21.1376C16.6655 20.9422 16.9304 20.8325 17.2067 20.8325H21.6367L25.4984 16.9716C25.6442 16.8263 25.8298 16.7274 26.0318 16.6874C26.2337 16.6475 26.443 16.6682 26.6332 16.747C26.8234 16.8258 26.986 16.9591 27.1005 17.1302C27.215 17.3013 27.2763 17.5024 27.2767 17.7083V32.2916C27.2768 32.4291 27.2497 32.5653 27.1968 32.6922C27.144 32.8191 27.0665 32.9343 26.9689 33.0311C26.8712 33.1279 26.7554 33.2044 26.628 33.2561C26.5006 33.3078 26.3642 33.3338 26.2267 33.3325C26.0911 33.3325 25.9568 33.3055 25.8317 33.253C25.7066 33.2005 25.5933 33.1235 25.4984 33.0266Z" fill="#FAFAFA"/>
<path d="M31.2804 19.5244C30.9443 19.7996 30.9443 20.2453 31.2804 20.5204C32.7453 21.7185 33.5521 23.3094 33.5521 25.0001C33.5521 26.6907 32.7453 28.2816 31.2804 29.4798C30.9443 29.7549 30.9443 30.2006 31.2804 30.4757C31.6166 30.7508 32.1612 30.7508 32.4973 30.4757C34.2874 29.0114 35.2732 27.067 35.2732 25.0001C35.2732 22.9332 34.2874 20.9888 32.4973 19.5244C32.1612 19.2493 31.6166 19.2493 31.2804 19.5244Z" fill="#FAFAFA"/>
<path d="M28.8478 28.4845C29.184 28.7596 29.7286 28.7596 30.0647 28.4845C31.2035 27.5532 31.8313 26.3158 31.8313 25C31.8313 23.6842 31.2035 22.4469 30.0647 21.5156C29.7286 21.2405 29.184 21.2405 28.8478 21.5156C28.5117 21.7907 28.5117 22.2371 28.8478 22.5115C29.6622 23.1774 30.1101 24.0612 30.1101 25C30.1101 25.9389 29.6622 26.8227 28.8478 27.4885C28.5117 27.763 28.5117 28.2094 28.8478 28.4845Z" fill="#FAFAFA"/>
</svg>
