<svg width="23" height="21" viewBox="0 0 23 21" fill="none" xmlns="http://www.w3.org/2000/svg">
<path d="M11.448 20.3325C11.128 20.3325 10.8194 20.2166 10.579 20.006C9.67084 19.2119 8.79529 18.4656 8.02281 17.8074L8.01887 17.804C5.75409 15.874 3.79838 14.2072 2.43762 12.5654C0.916511 10.7299 0.208008 8.9896 0.208008 7.08843C0.208008 5.24128 0.84139 3.53716 1.99136 2.28978C3.15505 1.02765 4.75179 0.33252 6.48798 0.33252C7.78562 0.33252 8.974 0.742769 10.02 1.55178C10.5479 1.96014 11.0264 2.45992 11.448 3.04288C11.8698 2.45992 12.3481 1.96014 12.8762 1.55178C13.9222 0.742769 15.1106 0.33252 16.4082 0.33252C18.1442 0.33252 19.7412 1.02765 20.9048 2.28978C22.0548 3.53716 22.688 5.24128 22.688 7.08843C22.688 8.9896 21.9797 10.7299 20.4586 12.5652C19.0978 14.2072 17.1423 15.8738 14.8779 17.8036C14.104 18.4629 13.2271 19.2103 12.3169 20.0063C12.0766 20.2166 11.7679 20.3325 11.448 20.3325ZM6.48798 1.64937C5.12397 1.64937 3.87092 2.19373 2.95935 3.18231C2.03423 4.18581 1.52468 5.57298 1.52468 7.08843C1.52468 8.68741 2.11896 10.1174 3.45141 11.7252C4.73927 13.2792 6.65486 14.9116 8.87281 16.8018L8.87693 16.8053C9.65232 17.4661 10.5313 18.2152 11.4461 19.0152C12.3664 18.2137 13.2468 17.4633 14.0237 16.8015C16.2415 14.9113 18.1569 13.2792 19.4448 11.7252C20.7771 10.1174 21.3714 8.68741 21.3714 7.08843C21.3714 5.57298 20.8618 4.18581 19.9367 3.18231C19.0253 2.19373 17.7721 1.64937 16.4082 1.64937C15.409 1.64937 14.4916 1.967 13.6816 2.59335C12.9597 3.15178 12.4568 3.85771 12.162 4.35166C12.0104 4.60566 11.7435 4.75728 11.448 4.75728C11.1525 4.75728 10.8856 4.60566 10.734 4.35166C10.4394 3.85771 9.93651 3.15178 9.21446 2.59335C8.40442 1.967 7.48702 1.64937 6.48798 1.64937Z" fill="#FAFAFA"/>
</svg>
