<svg width="24" height="21" viewBox="0 0 24 21" fill="none" xmlns="http://www.w3.org/2000/svg">
<path d="M11.928 20.3325C11.608 20.3325 11.2994 20.2166 11.059 20.006C10.1508 19.2119 9.27527 18.4656 8.50279 17.8074L8.49885 17.804C6.23407 15.874 4.27836 14.2072 2.9176 12.5654C1.39649 10.7299 0.687988 8.9896 0.687988 7.08843C0.687988 5.24128 1.32137 3.53716 2.47134 2.28978C3.63503 1.02765 5.23177 0.33252 6.96796 0.33252C8.2656 0.33252 9.45398 0.742769 10.5 1.55178C11.0279 1.96014 11.5064 2.45992 11.928 3.04288C12.3497 2.45992 12.8281 1.96014 13.3562 1.55178C14.4022 0.742769 15.5906 0.33252 16.8882 0.33252C18.6242 0.33252 20.2211 1.02765 21.3848 2.28978C22.5348 3.53716 23.168 5.24128 23.168 7.08843C23.168 8.9896 22.4597 10.7299 20.9386 12.5652C19.5778 14.2072 17.6223 15.8738 15.3578 17.8036C14.584 18.4629 13.7071 19.2103 12.7969 20.0063C12.5566 20.2166 12.2479 20.3325 11.928 20.3325Z" fill="#DF6067"/>
</svg>
