<svg width="51" height="50" viewBox="0 0 51 50" fill="none" xmlns="http://www.w3.org/2000/svg">
<circle opacity="0.4" cx="25.7075" cy="25" r="25" fill="#FAFAFA"/>
<g clip-path="url(#clip0_890_5245)">
<path d="M25.5215 21.199L29.0272 24.6346L29.0439 24.4547C29.0439 22.6496 27.547 21.1827 25.7051 21.1827L25.5215 21.199Z" fill="#FAFAFA"/>
<path d="M25.7049 19.0014C28.7766 19.0014 31.2695 21.4445 31.2695 24.4547C31.2695 25.1582 31.1249 25.8289 30.8745 26.4451L34.1298 29.6353C35.8103 28.2611 37.1346 26.4833 37.9526 24.4547C36.0217 19.6667 31.2751 16.2747 25.705 16.2747C24.1469 16.2747 22.6556 16.5474 21.27 17.0382L23.6739 19.3886C24.3027 19.1486 24.9871 19.0014 25.7049 19.0014Z" fill="#FAFAFA"/>
<path d="M14.5758 16.0293L17.1132 18.516L17.6196 19.0123C15.7833 20.4192 14.331 22.2897 13.4629 24.4547C15.3883 29.2426 20.1404 32.6346 25.705 32.6346C27.4301 32.6346 29.0772 32.3074 30.5852 31.713L31.0582 32.1765L34.3024 35.3612L35.7214 33.9761L15.9948 14.6387L14.5758 16.0293ZM20.7303 22.0552L22.4497 23.7403C22.3997 23.9748 22.3663 24.2093 22.3663 24.4547C22.3663 26.2597 23.8631 27.7266 25.705 27.7266C25.9554 27.7266 26.1947 27.6939 26.4284 27.6448L28.1479 29.3299C27.4078 29.6898 26.5843 29.908 25.705 29.908C22.6334 29.908 20.1404 27.4649 20.1404 24.4547C20.1404 23.593 20.363 22.7859 20.7303 22.0552Z" fill="#FAFAFA"/>
</g>
<defs>
<clipPath id="clip0_890_5245">
<rect width="24.4898" height="24" fill="white" transform="translate(13.4629 13)"/>
</clipPath>
</defs>
</svg>
