<svg width="31" height="31" viewBox="0 0 31 31" fill="none" xmlns="http://www.w3.org/2000/svg">
<g clip-path="url(#clip0_893_5531)">
<path d="M30.1402 14.1612L16.6802 1.89653C16.0894 1.35812 15.1985 1.35818 14.6079 1.89648L1.14783 14.1613C0.674573 14.5925 0.518245 15.257 0.749455 15.854C0.980725 16.451 1.54381 16.8367 2.18406 16.8367H4.33386V29.1251C4.33386 29.6123 4.7289 30.0073 5.21611 30.0073H12.5939C13.0811 30.0073 13.4761 29.6123 13.4761 29.1251V21.664H17.8122V29.1251C17.8122 29.6123 18.2072 30.0074 18.6944 30.0074H26.0718C26.559 30.0074 26.9541 29.6124 26.9541 29.1251V16.8367H29.1043C29.7445 16.8367 30.3076 16.451 30.5389 15.854C30.7698 15.2569 30.6135 14.5925 30.1402 14.1612Z" fill="#FAFAFA"/>
<path d="M26.7238 3.25372H20.7988L27.606 9.44332V4.13591C27.606 3.6487 27.211 3.25372 26.7238 3.25372Z" fill="#FAFAFA"/>
</g>
<defs>
<clipPath id="clip0_893_5531">
<rect width="30" height="30" fill="white" transform="translate(0.644043 0.75)"/>
</clipPath>
</defs>
</svg>
