<svg width="25" height="25" viewBox="0 0 25 25" fill="none" xmlns="http://www.w3.org/2000/svg">
<g clip-path="url(#clip0_890_5395)">
<path d="M12.6442 5.7594C11.8353 5.7594 11.0727 6.54946 10.4985 7.12358L3.36914 14.2564V22.4329C3.36914 23.3275 4.09579 24.0542 4.99211 24.0542H20.2997C21.1943 24.0542 21.921 23.3275 21.921 22.4329V14.2564L14.7899 7.12358C14.2175 6.54946 13.4531 5.7594 12.6442 5.7594ZM17.5919 17.8245H14.31V21.1064H10.9784V17.8245H7.69476V14.4946H10.9784V11.211H14.31V14.4946H17.5919V17.8245Z" fill="#FAFAFA"/>
<path d="M24.2585 10.9419L16.1728 2.8614C14.2859 0.974506 11.0023 0.974506 9.11197 2.8614L1.03142 10.9419C0.515568 11.4578 0.515568 12.2907 1.03142 12.8083C1.52842 13.3053 2.39732 13.3053 2.89432 12.8083L10.9766 4.72429C11.8678 3.83312 13.4205 3.83312 14.3099 4.72429L22.3922 12.8083C22.6407 13.0568 22.9732 13.1922 23.3228 13.1922C23.6741 13.1922 24.0066 13.0568 24.2585 12.8083C24.7726 12.2907 24.7726 11.4578 24.2585 10.9419Z" fill="#FAFAFA"/>
</g>
<defs>
<clipPath id="clip0_890_5395">
<rect width="24" height="24" fill="white" transform="translate(0.644043 0.75)"/>
</clipPath>
</defs>
</svg>
