<svg width="29" height="25" viewBox="0 0 29 25" fill="none" xmlns="http://www.w3.org/2000/svg">
<circle cx="14.4593" cy="14.5784" r="4.71569" fill="#FAFAFA"/>
<path d="M25.7635 24.7827H3.15715C2.46993 24.7863 1.80893 24.517 1.31977 24.0343C0.830615 23.5516 0.551883 22.8951 0.546387 22.2079V6.78388C0.551883 6.09682 0.830568 5.43989 1.31977 4.95744C1.80898 4.47498 2.47008 4.20656 3.15715 4.21061H7.93652L8.60679 2.44979C8.79885 1.95843 9.13506 1.53793 9.57079 1.2405C10.0065 0.943069 10.5213 0.782574 11.0488 0.782715H17.8671C18.3947 0.782574 18.9094 0.943069 19.3451 1.2405C19.7809 1.53793 20.1171 1.95843 20.3091 2.44979L20.9794 4.21061H25.7635C26.4505 4.20656 27.1101 4.47498 27.5993 4.95744C28.0885 5.43989 28.3672 6.09682 28.3727 6.78388V22.2079C28.3672 22.8951 28.09 23.5516 27.6008 24.0343C27.1117 24.517 26.4507 24.7863 25.7635 24.7827ZM14.4595 8.06817C12.7425 8.05667 11.0907 8.72694 9.86764 9.93211C8.64463 11.1373 7.95026 12.7789 7.93652 14.4959C7.95026 16.2128 8.64463 17.8529 9.86764 19.0581C11.0907 20.2632 12.7425 20.9351 14.4595 20.9236C16.176 20.9342 17.826 20.2631 19.0483 19.0581C20.2706 17.853 20.9641 16.2123 20.9778 14.4959C20.9637 12.7799 20.2704 11.1384 19.0483 9.93367C17.8262 8.72896 16.1755 8.05929 14.4595 8.06973V8.06817Z" fill="#FAFAFA"/>
</svg>
