<svg width="51" height="41" viewBox="0 0 51 41" fill="none" xmlns="http://www.w3.org/2000/svg">
<path d="M24.0086 40.6806H1.48437C1.15294 40.6803 0.835159 40.5485 0.600799 40.3142C0.366439 40.0798 0.234654 39.762 0.234375 39.4306L0.234375 10.6806C0.235211 10.0178 0.498871 9.38242 0.967531 8.91376C1.43619 8.4451 2.07159 8.18144 2.73437 8.1806H5.23437V3.1806C5.23507 2.51778 5.49869 1.8823 5.96738 1.41361C6.43607 0.944915 7.07155 0.6813 7.73437 0.680603L20.2344 0.680603C20.8972 0.681439 21.5326 0.945099 22.0012 1.41376C22.4699 1.88242 22.7335 2.51782 22.7344 3.1806V8.1806H25.2344C25.8972 8.18144 26.5326 8.4451 27.0012 8.91376C27.4699 9.38242 27.7335 10.0178 27.7344 10.6806V27.6038C27.1149 28.0108 26.5367 28.4774 26.0081 28.9969C24.9623 30.048 24.1348 31.2956 23.573 32.6677C23.0111 34.0398 22.7261 35.5095 22.7344 36.9922C22.7495 38.3269 23.1964 39.6209 24.0081 40.6806H24.0086ZM17.4223 28.1806C17.1737 28.1809 16.9355 28.2797 16.7598 28.4555C16.584 28.6312 16.4852 28.8694 16.4849 29.118V32.2427C16.4852 32.4912 16.584 32.7295 16.7598 32.9052C16.9355 33.0809 17.1737 33.1798 17.4223 33.1801H20.547C20.7955 33.1798 21.0338 33.0809 21.2095 32.9052C21.3852 32.7295 21.4841 32.4912 21.4844 32.2427V29.1185C21.4841 28.87 21.3852 28.6317 21.2095 28.456C21.0338 28.2802 20.7955 28.1814 20.547 28.1811L17.4223 28.1806ZM7.42227 28.1806C7.1737 28.1809 6.93538 28.2797 6.75957 28.4554C6.58376 28.6311 6.48479 28.8694 6.48437 29.118V32.2427C6.48479 32.4913 6.58376 32.7295 6.75957 32.9052C6.93538 33.081 7.1737 33.1798 7.42227 33.1801H10.547C10.7955 33.1798 11.0338 33.0809 11.2095 32.9052C11.3852 32.7295 11.4841 32.4912 11.4844 32.2427V29.1185C11.4841 28.87 11.3852 28.6317 11.2095 28.456C11.0338 28.2802 10.7955 28.1814 10.547 28.1811L7.42227 28.1806ZM17.4223 18.1806C17.1737 18.181 16.9354 18.28 16.7597 18.4558C16.584 18.6316 16.4852 18.8699 16.4849 19.1185V22.2432C16.4852 22.4917 16.584 22.73 16.7598 22.9057C16.9355 23.0815 17.1737 23.1803 17.4223 23.1806H20.547C20.7955 23.1803 21.0338 23.0815 21.2095 22.9057C21.3852 22.73 21.4841 22.4917 21.4844 22.2432V19.1185C21.4841 18.8699 21.3853 18.6316 21.2095 18.4558C21.0338 18.28 20.7956 18.181 20.547 18.1806H17.4223ZM7.42227 18.1806C7.17361 18.1809 6.93521 18.2798 6.75938 18.4556C6.58355 18.6314 6.48465 18.8698 6.48437 19.1185V22.2432C6.48479 22.4918 6.58376 22.7301 6.75957 22.9058C6.93538 23.0815 7.1737 23.1803 7.42227 23.1806H10.547C10.7955 23.1803 11.0338 23.0815 11.2095 22.9057C11.3852 22.73 11.4841 22.4917 11.4844 22.2432V19.1185C11.4841 18.8699 11.3853 18.6316 11.2095 18.4558C11.0338 18.28 10.7956 18.181 10.547 18.1806H7.42227Z" fill="#FAFAFA"/>
<path d="M15.6507 13.8059C15.6505 13.9715 15.5847 14.1303 15.4676 14.2475C15.3504 14.3646 15.1916 14.4305 15.026 14.4306H12.9428C12.7771 14.4305 12.6183 14.3646 12.5012 14.2475C12.3841 14.1303 12.3182 13.9715 12.3181 13.8059V11.0969H9.60964C9.4439 11.0969 9.28494 11.0311 9.1677 10.914C9.05045 10.7968 8.98451 10.6379 8.98438 10.4722V8.38902C8.98451 8.22328 9.05045 8.06438 9.1677 7.94724C9.28494 7.83009 9.4439 7.76429 9.60964 7.76429H12.3181V5.05587C12.3181 4.89013 12.3839 4.73117 12.501 4.61392C12.6182 4.49668 12.7771 4.43074 12.9428 4.4306H15.0254C15.1913 4.4306 15.3503 4.49648 15.4676 4.61374C15.5848 4.731 15.6507 4.89004 15.6507 5.05587V7.76429H18.3591C18.5248 7.76429 18.6838 7.83009 18.8011 7.94724C18.9183 8.06438 18.9842 8.22328 18.9844 8.38902V10.4717C18.9844 10.6374 18.9186 10.7964 18.8014 10.9136C18.6843 11.0308 18.5254 11.0968 18.3596 11.0969H15.6507V13.8059Z" fill="#3D9DD9"/>
<path d="M28.9844 40.6806C27.9974 40.6831 27.0495 40.2955 26.3472 39.6021C25.6448 38.9088 25.245 37.9659 25.2349 36.979V36.9306C25.2349 34.61 26.1567 32.3845 27.7975 30.7436C29.4384 29.1027 31.6638 28.1807 33.9844 28.1806C34.1714 28.1797 34.3574 28.2085 34.5354 28.2659C36.6072 28.9853 38.861 28.9853 40.9328 28.2659C41.111 28.2085 41.2972 28.1797 41.4844 28.1806H41.5328C42.6819 28.1869 43.8185 28.4194 44.8777 28.865C45.9369 29.3106 46.8979 29.9604 47.706 30.7775C48.514 31.5945 49.1532 32.5627 49.587 33.6267C50.0208 34.6908 50.2408 35.8299 50.2344 36.979C50.2241 37.9659 49.8242 38.9086 49.1219 39.602C48.4196 40.2953 47.4718 40.683 46.4849 40.6806H28.9844ZM30.2344 18.1806C30.2344 16.6972 30.6742 15.2472 31.4983 14.0138C32.3225 12.7805 33.4938 11.8192 34.8642 11.2515C36.2347 10.6838 37.7427 10.5353 39.1975 10.8247C40.6524 11.1141 41.9888 11.8284 43.0377 12.8773C44.0866 13.9262 44.8009 15.2626 45.0903 16.7174C45.3796 18.1723 45.2311 19.6803 44.6635 21.0507C44.0958 22.4212 43.1345 23.5925 41.9011 24.4166C40.6678 25.2407 39.2177 25.6806 37.7344 25.6806C35.7452 25.6806 33.8376 24.8904 32.4311 23.4839C31.0245 22.0774 30.2344 20.1697 30.2344 18.1806ZM12.9428 14.4306C12.8608 14.4306 12.7795 14.4144 12.7037 14.383C12.6279 14.3516 12.5591 14.3056 12.501 14.2476C12.443 14.1896 12.397 14.1207 12.3656 14.0449C12.3342 13.9691 12.3181 13.8879 12.3181 13.8059V11.0974H9.60911C9.44337 11.0973 9.28447 11.0314 9.16732 10.9141C9.05018 10.7969 8.98437 10.6379 8.98438 10.4722V8.38902C8.98438 8.22333 9.0502 8.06443 9.16736 7.94727C9.28452 7.83011 9.44342 7.76429 9.60911 7.76429H12.3181V5.05534C12.3181 4.88965 12.3839 4.73074 12.501 4.61358C12.6182 4.49642 12.7771 4.4306 12.9428 4.4306H15.0254C15.1912 4.4306 15.3501 4.49641 15.4674 4.61355C15.5846 4.7307 15.6505 4.8896 15.6507 5.05534V7.76429H18.3591C18.4412 7.76422 18.5225 7.78033 18.5983 7.81169C18.6742 7.84306 18.7431 7.88906 18.8012 7.94708C18.8593 8.0051 18.9053 8.07399 18.9368 8.14982C18.9682 8.22566 18.9844 8.30694 18.9844 8.38902V10.4717C18.9844 10.6374 18.9186 10.7964 18.8014 10.9136C18.6843 11.0308 18.5254 11.0968 18.3596 11.0969H15.6512V13.8053C15.6512 13.8874 15.635 13.9688 15.6036 14.0446C15.5722 14.1205 15.5261 14.1894 15.4681 14.2475C15.41 14.3055 15.3411 14.3516 15.2652 14.383C15.1894 14.4144 15.1081 14.4306 15.026 14.4306H12.9428Z" fill="#01B1B8"/>
</svg>
