<svg width="44" height="49" viewBox="0 0 44 49" fill="none" xmlns="http://www.w3.org/2000/svg">
<g filter="url(#filter0_d_893_5745)">
<path d="M35.9569 40.6807H8.51167C7.51843 40.6786 6.56658 40.2826 5.86494 39.5796C5.1633 38.8765 4.76918 37.9239 4.76904 36.9307L4.76904 15.6807H39.6996V36.9307C39.6994 37.9239 39.3053 38.8765 38.6037 39.5796C37.902 40.2826 36.9502 40.6786 35.9569 40.6807ZM30.6548 30.6807C30.4065 30.6811 30.1685 30.78 29.993 30.9558C29.8176 31.1315 29.719 31.3697 29.719 31.618V34.7433C29.719 34.9916 29.8176 35.2298 29.993 35.4056C30.1685 35.5813 30.4065 35.6802 30.6548 35.6807H33.7738C34.0221 35.6801 34.26 35.5811 34.4354 35.4054C34.6108 35.2297 34.7094 34.9916 34.7096 34.7433V31.618C34.7094 31.3697 34.6108 31.1316 34.4354 30.9559C34.26 30.7802 34.0221 30.6812 33.7738 30.6807H30.6548ZM20.6748 30.6807C20.4265 30.6811 20.1885 30.78 20.013 30.9558C19.8376 31.1315 19.739 31.3697 19.739 31.618V34.7433C19.739 34.9916 19.8376 35.2298 20.013 35.4056C20.1885 35.5813 20.4265 35.6802 20.6748 35.6807H23.7938C24.0421 35.6802 24.2801 35.5813 24.4556 35.4056C24.631 35.2298 24.7296 34.9916 24.7296 34.7433V31.618C24.7296 31.3697 24.631 31.1315 24.4556 30.9558C24.2801 30.78 24.0421 30.6811 23.7938 30.6807H20.6748ZM10.6948 30.6807C10.4465 30.6811 10.2085 30.78 10.033 30.9558C9.85758 31.1315 9.75904 31.3697 9.75904 31.618V34.7433C9.75904 34.9916 9.85758 35.2298 10.033 35.4056C10.2085 35.5813 10.4465 35.6802 10.6948 35.6807H13.8138C14.0621 35.6802 14.3001 35.5813 14.4756 35.4056C14.651 35.2298 14.7496 34.9916 14.7496 34.7433V31.618C14.7496 31.3697 14.651 31.1315 14.4756 30.9558C14.3001 30.78 14.0621 30.6811 13.8138 30.6807H10.6948ZM30.6548 20.6807C30.4065 20.6811 30.1685 20.78 29.993 20.9558C29.8176 21.1315 29.719 21.3697 29.719 21.618V24.7433C29.719 24.9916 29.8176 25.2298 29.993 25.4056C30.1685 25.5813 30.4065 25.6802 30.6548 25.6807H33.7738C34.0221 25.6801 34.26 25.5811 34.4354 25.4054C34.6108 25.2297 34.7094 24.9916 34.7096 24.7433V21.618C34.7094 21.3697 34.6108 21.1316 34.4354 20.9559C34.26 20.7802 34.0221 20.6812 33.7738 20.6807H30.6548ZM20.6748 20.6807C20.4265 20.6811 20.1885 20.78 20.013 20.9558C19.8376 21.1315 19.739 21.3697 19.739 21.618V24.7433C19.739 24.9916 19.8376 25.2298 20.013 25.4056C20.1885 25.5813 20.4265 25.6802 20.6748 25.6807H23.7938C24.0421 25.6802 24.2801 25.5813 24.4556 25.4056C24.631 25.2298 24.7296 24.9916 24.7296 24.7433V21.618C24.7296 21.3697 24.631 21.1315 24.4556 20.9558C24.2801 20.78 24.0421 20.6811 23.7938 20.6807H20.6748ZM10.6948 20.6807C10.4465 20.6811 10.2085 20.78 10.033 20.9558C9.85758 21.1315 9.75904 21.3697 9.75904 21.618V24.7433C9.75904 24.9916 9.85758 25.2298 10.033 25.4056C10.2085 25.5813 10.4465 25.6802 10.6948 25.6807H13.8138C14.0621 25.6802 14.3001 25.5813 14.4756 25.4056C14.651 25.2298 14.7496 24.9916 14.7496 24.7433V21.618C14.7496 21.3697 14.651 21.1315 14.4756 20.9558C14.3001 20.78 14.0621 20.6811 13.8138 20.6807H10.6948ZM30.9669 10.6807H28.4717C28.1406 10.68 27.8233 10.548 27.5895 10.3136C27.3556 10.0793 27.2243 9.76173 27.2243 9.43066V1.93066C27.2243 1.5996 27.3556 1.28205 27.5895 1.04771C27.8233 0.813365 28.1406 0.681361 28.4717 0.680664L30.9669 0.680664C31.298 0.681361 31.6153 0.813365 31.8491 1.04771C32.083 1.28205 32.2143 1.5996 32.2143 1.93066V9.43066C32.2143 9.76173 32.083 10.0793 31.8491 10.3136C31.6153 10.548 31.298 10.68 30.9669 10.6807ZM15.9969 10.6807H13.5022C13.1711 10.68 12.8538 10.548 12.6198 10.3137C12.3859 10.0793 12.2544 9.76178 12.2543 9.43066V1.93066C12.2544 1.59964 12.3858 1.28218 12.6196 1.04786C12.8535 0.813548 13.1707 0.6815 13.5017 0.680664H15.9964C16.3273 0.681639 16.6443 0.813766 16.8779 1.04808C17.1115 1.2824 17.2427 1.59978 17.2427 1.93066V9.43066C17.2427 9.76146 17.1116 10.0788 16.8781 10.3131C16.6446 10.5474 16.3277 10.6796 15.9969 10.6807Z" fill="#FAFAFA"/>
<path d="M39.6996 9.43066V15.6807H4.76904V9.43066C4.76856 8.93869 4.86498 8.45144 5.05281 7.99673C5.24063 7.54202 5.51617 7.12876 5.86371 6.78054C6.21125 6.43232 6.62396 6.15596 7.0783 5.96724C7.53264 5.77853 8.0197 5.68115 8.51168 5.68066H12.2543V9.43066C12.254 9.76181 12.3853 10.0795 12.6192 10.3139C12.8531 10.5483 13.1705 10.6802 13.5017 10.6807H15.9969C16.3278 10.6798 16.6448 10.5477 16.8784 10.3134C17.112 10.079 17.243 9.76154 17.2427 9.43066V5.68066H27.2243V9.43066C27.224 9.76181 27.3553 10.0795 27.5892 10.3139C27.8231 10.5483 28.1405 10.6802 28.4717 10.6807H30.9669C31.2981 10.6802 31.6155 10.5483 31.8494 10.3139C32.0833 10.0795 32.2146 9.76181 32.2143 9.43066V5.68066H35.9569C36.4489 5.68115 36.936 5.77853 37.3903 5.96724C37.8447 6.15596 38.2574 6.43232 38.6049 6.78054C38.9524 7.12876 39.228 7.54202 39.4158 7.99673C39.6036 8.45144 39.7001 8.93869 39.6996 9.43066Z" fill="#01B1B8"/>
</g>
<defs>
<filter id="filter0_d_893_5745" x="0.769043" y="0.680664" width="42.9307" height="48" filterUnits="userSpaceOnUse" color-interpolation-filters="sRGB">
<feFlood flood-opacity="0" result="BackgroundImageFix"/>
<feColorMatrix in="SourceAlpha" type="matrix" values="0 0 0 0 0 0 0 0 0 0 0 0 0 0 0 0 0 0 127 0" result="hardAlpha"/>
<feOffset dy="4"/>
<feGaussianBlur stdDeviation="2"/>
<feComposite in2="hardAlpha" operator="out"/>
<feColorMatrix type="matrix" values="0 0 0 0 0 0 0 0 0 0 0 0 0 0 0 0 0 0 0.25 0"/>
<feBlend mode="normal" in2="BackgroundImageFix" result="effect1_dropShadow_893_5745"/>
<feBlend mode="normal" in="SourceGraphic" in2="effect1_dropShadow_893_5745" result="shape"/>
</filter>
</defs>
</svg>
