<svg width="47" height="48" viewBox="0 0 47 48" fill="none" xmlns="http://www.w3.org/2000/svg">
<path d="M14.8197 39.1245C13.6984 38.4766 12.6514 37.7081 11.6972 36.8327C11.5547 36.703 11.4609 36.5286 11.4313 36.3382C11.4018 36.1479 11.4382 35.9532 11.5347 35.7864L13.2713 32.7785C12.182 31.5168 11.3406 30.0607 10.7915 28.4868L7.32021 28.4885C7.12695 28.4887 6.93942 28.4229 6.78877 28.3018C6.63811 28.1808 6.53337 28.0118 6.49195 27.8231C5.92465 25.2848 5.92451 22.6526 6.49154 20.1143C6.53387 19.926 6.63913 19.7578 6.78995 19.6375C6.94076 19.5171 7.12812 19.4517 7.32108 19.4522L10.7928 19.452C11.3477 17.8819 12.1874 16.4276 13.2697 15.1619L11.5334 12.1562C11.4374 11.9891 11.4008 11.7944 11.4296 11.6038C11.4584 11.4132 11.5509 11.238 11.6921 11.1068C13.6067 9.34395 15.8889 8.02824 18.3739 7.25464C18.558 7.19433 18.7573 7.19969 18.9379 7.26981C19.1184 7.33993 19.2691 7.47047 19.3643 7.63921L21.0904 10.6417C22.7278 10.3401 24.4065 10.3401 26.044 10.6416L27.78 7.63471C27.876 7.46751 28.0265 7.33826 28.2062 7.2685C28.386 7.19873 28.5842 7.19266 28.7679 7.25129C31.2476 8.03183 33.5257 9.3471 35.4415 11.1043C35.5831 11.2343 35.6759 11.4088 35.7047 11.5989C35.7334 11.789 35.6962 11.9832 35.5993 12.1492L33.8674 15.149C34.9535 16.4107 35.7926 17.8654 36.3411 19.4373L39.8129 19.4371C40.0049 19.4379 40.1909 19.5039 40.3404 19.6243C40.49 19.7446 40.5943 19.9123 40.6361 20.0996C41.2045 22.6386 41.2063 25.2716 40.6415 27.8113C40.5985 27.9993 40.4928 28.1672 40.342 28.2874C40.1911 28.4075 40.0039 28.4729 39.811 28.4729L36.3392 28.473C35.7844 30.0432 34.9447 31.4976 33.8623 32.7631L35.605 35.7671C35.7003 35.9359 35.7367 36.1316 35.7084 36.3234C35.6802 36.5151 35.5889 36.692 35.4489 36.8261C33.535 38.5885 31.2535 39.9037 28.7693 40.6768C28.5862 40.7361 28.3883 40.7305 28.2088 40.661C28.0294 40.5915 27.8793 40.4623 27.7839 40.2952L26.0453 37.2935C24.4078 37.5949 22.7291 37.5949 21.0917 37.2936L19.355 40.3015C19.2589 40.4684 19.1085 40.5973 18.9288 40.6669C18.7492 40.7365 18.5512 40.7425 18.3677 40.6839C17.1317 40.2951 15.9419 39.7721 14.8197 39.1245ZM26.9507 18.099C25.7916 17.4298 24.4602 17.1194 23.1247 17.2069C21.7892 17.2944 20.5097 17.776 19.4479 18.5907C18.3861 19.4055 17.5898 20.5168 17.1596 21.7841C16.7294 23.0514 16.6847 24.4178 17.0311 25.7106C17.3774 27.0033 18.0994 28.1643 19.1056 29.0467C20.1118 29.9292 21.3571 30.4934 22.684 30.6681C24.0109 30.8428 25.3598 30.6201 26.5601 30.0281C27.7605 29.4362 28.7583 28.5016 29.4275 27.3426C30.3226 25.7879 30.5645 23.9416 30.1002 22.2087C29.6359 20.4758 28.5032 18.9979 26.9507 18.099Z" fill="#FAFAFA"/>
<path d="M21.3124 27.8643C20.54 27.4184 19.9172 26.7534 19.5228 25.9536C19.1283 25.1537 18.9799 24.2548 19.0963 23.3706C19.2127 22.4864 19.5887 21.6566 20.1768 20.986C20.7648 20.3155 21.5385 19.8344 22.3999 19.6036C23.2614 19.3728 24.1719 19.4026 25.0165 19.6892C25.861 19.9759 26.6015 20.5066 27.1444 21.2141C27.6873 21.9217 28.0083 22.7743 28.0666 23.6643C28.1249 24.5542 27.918 25.4414 27.4721 26.2138C26.8742 27.2495 25.8893 28.0053 24.7341 28.3148C23.5789 28.6243 22.3481 28.4623 21.3124 27.8643Z" fill="#FAFAFA"/>
</svg>
