<svg width="22" height="25" viewBox="0 0 22 25" fill="none" xmlns="http://www.w3.org/2000/svg">
<path d="M19.3187 24.4929H2.85154C2.25559 24.4917 1.68448 24.2541 1.2635 23.8323C0.842512 23.4104 0.606039 22.8389 0.605957 22.2429L0.605957 9.49292H21.5643V22.2429C21.5642 22.8389 21.3277 23.4104 20.9067 23.8323C20.4858 24.2541 19.9146 24.4917 19.3187 24.4929ZM16.1374 18.4929C15.9884 18.4932 15.8456 18.5525 15.7404 18.658C15.6351 18.7634 15.576 18.9063 15.576 19.0553V20.9305C15.576 21.0795 15.6351 21.2224 15.7404 21.3279C15.8456 21.4333 15.9884 21.4927 16.1374 21.4929H18.0088C18.1578 21.4926 18.3005 21.4332 18.4058 21.3278C18.511 21.2223 18.5702 21.0795 18.5703 20.9305V19.0553C18.5702 18.9064 18.511 18.7635 18.4058 18.6581C18.3005 18.5526 18.1578 18.4933 18.0088 18.4929H16.1374ZM10.1494 18.4929C10.0004 18.4932 9.85762 18.5525 9.75235 18.658C9.64708 18.7634 9.58796 18.9063 9.58796 19.0553V20.9305C9.58796 21.0795 9.64708 21.2224 9.75235 21.3279C9.85762 21.4333 10.0004 21.4927 10.1494 21.4929H12.0208C12.1698 21.4927 12.3126 21.4333 12.4179 21.3279C12.5231 21.2224 12.5823 21.0795 12.5823 20.9305V19.0553C12.5823 18.9063 12.5231 18.7634 12.4179 18.658C12.3126 18.5525 12.1698 18.4932 12.0208 18.4929H10.1494ZM4.16143 18.4929C4.01243 18.4932 3.86962 18.5525 3.76435 18.658C3.65908 18.7634 3.59996 18.9063 3.59996 19.0553V20.9305C3.59996 21.0795 3.65908 21.2224 3.76435 21.3279C3.86962 21.4333 4.01243 21.4927 4.16143 21.4929H6.0328C6.1818 21.4927 6.32461 21.4333 6.42988 21.3279C6.53515 21.2224 6.59427 21.0795 6.59427 20.9305V19.0553C6.59427 18.9063 6.53515 18.7634 6.42988 18.658C6.32461 18.5525 6.1818 18.4932 6.0328 18.4929H4.16143ZM16.1374 12.4929C15.9884 12.4932 15.8456 12.5525 15.7404 12.658C15.6351 12.7634 15.576 12.9063 15.576 13.0553V14.9305C15.576 15.0795 15.6351 15.2224 15.7404 15.3279C15.8456 15.4333 15.9884 15.4927 16.1374 15.4929H18.0088C18.1578 15.4926 18.3005 15.4332 18.4058 15.3278C18.511 15.2223 18.5702 15.0795 18.5703 14.9305V13.0553C18.5702 12.9064 18.511 12.7635 18.4058 12.6581C18.3005 12.5526 18.1578 12.4933 18.0088 12.4929H16.1374ZM10.1494 12.4929C10.0004 12.4932 9.85762 12.5525 9.75235 12.658C9.64708 12.7634 9.58796 12.9063 9.58796 13.0553V14.9305C9.58796 15.0795 9.64708 15.2224 9.75235 15.3279C9.85762 15.4333 10.0004 15.4927 10.1494 15.4929H12.0208C12.1698 15.4927 12.3126 15.4333 12.4179 15.3279C12.5231 15.2224 12.5823 15.0795 12.5823 14.9305V13.0553C12.5823 12.9063 12.5231 12.7634 12.4179 12.658C12.3126 12.5525 12.1698 12.4932 12.0208 12.4929H10.1494ZM4.16143 12.4929C4.01243 12.4932 3.86962 12.5525 3.76435 12.658C3.65908 12.7634 3.59996 12.9063 3.59996 13.0553V14.9305C3.59996 15.0795 3.65908 15.2224 3.76435 15.3279C3.86962 15.4333 4.01243 15.4927 4.16143 15.4929H6.0328C6.1818 15.4927 6.32461 15.4333 6.42988 15.3279C6.53515 15.2224 6.59427 15.0795 6.59427 14.9305V13.0553C6.59427 12.9063 6.53515 12.7634 6.42988 12.658C6.32461 12.5525 6.1818 12.4932 6.0328 12.4929H4.16143ZM16.3247 6.49292H14.8275C14.6289 6.4925 14.4385 6.4133 14.2982 6.27269C14.1579 6.13209 14.0791 5.94156 14.0791 5.74292V1.24292C14.0791 1.04428 14.1579 0.853754 14.2982 0.713147C14.4385 0.57254 14.6289 0.493338 14.8275 0.49292L16.3247 0.49292C16.5233 0.493338 16.7137 0.57254 16.854 0.713147C16.9943 0.853754 17.0731 1.04428 17.0731 1.24292V5.74292C17.0731 5.94156 16.9943 6.13209 16.854 6.27269C16.7137 6.4133 16.5233 6.4925 16.3247 6.49292ZM7.34269 6.49292H5.84585C5.64718 6.4925 5.45679 6.41331 5.31643 6.27271C5.17607 6.13211 5.0972 5.94159 5.09712 5.74292V1.24292C5.0972 1.04431 5.17603 0.853828 5.31632 0.713239C5.45661 0.57265 5.64692 0.493421 5.84554 0.49292H7.34238C7.54091 0.493505 7.73111 0.572781 7.87128 0.71337C8.01145 0.853959 8.09017 1.04439 8.09017 1.24292V5.74292C8.09017 5.9414 8.0115 6.13178 7.87139 6.27236C7.73129 6.41294 7.54117 6.49225 7.34269 6.49292Z" fill="#FAFAFA"/>
<path d="M21.5643 5.74292V9.49292H0.605958V5.74292C0.605668 5.44774 0.663521 5.15539 0.776215 4.88256C0.888908 4.60973 1.05424 4.36178 1.26276 4.15284C1.47128 3.94391 1.71891 3.7781 1.99151 3.66487C2.26412 3.55164 2.55635 3.49321 2.85154 3.49292H5.09712V5.74292C5.09695 5.94161 5.1757 6.13223 5.31604 6.27288C5.45639 6.41352 5.64685 6.49267 5.84554 6.49292H7.3427C7.54122 6.49242 7.73144 6.41316 7.87158 6.27254C8.01172 6.13193 8.09034 5.94145 8.09017 5.74292V3.49292H14.0791V5.74292C14.0789 5.94161 14.1577 6.13223 14.298 6.27288C14.4384 6.41352 14.6288 6.49267 14.8275 6.49292H16.3247C16.5234 6.49267 16.7138 6.41352 16.8542 6.27288C16.9945 6.13223 17.0733 5.94161 17.0731 5.74292V3.49292H19.3187C19.6139 3.49321 19.9061 3.55164 20.1787 3.66487C20.4513 3.7781 20.699 3.94391 20.9075 4.15284C21.116 4.36178 21.2813 4.60973 21.394 4.88256C21.5067 5.15539 21.5646 5.44774 21.5643 5.74292Z" fill="#01B1B8"/>
</svg>
