<svg width="72" height="71" viewBox="0 0 72 71" fill="none" xmlns="http://www.w3.org/2000/svg">
<path d="M18.397 53.3223C28.1601 63.0854 43.9893 63.0854 53.7524 53.3223C63.5155 43.5592 63.5155 27.7301 53.7524 17.967C43.9893 8.20387 28.1601 8.20387 18.397 17.967C8.63393 27.7301 8.63393 43.5592 18.397 53.3223Z" fill="#C4C4C4"/>
<path d="M43.3329 38.9544L32.7643 28.3858C31.788 27.4095 30.2051 27.4095 29.2288 28.3858L28.8152 28.7995C27.8388 29.7758 27.8388 31.3587 28.8152 32.335L39.3838 42.9036C40.3601 43.8799 41.943 43.8799 42.9193 42.9036L43.3329 42.4899C44.3093 41.5136 44.3093 39.9307 43.3329 38.9544Z" fill="#001823"/>
<path d="M32.7657 42.9035L43.3343 32.3349C44.3106 31.3586 44.3106 29.7757 43.3343 28.7994L42.9206 28.3857C41.9443 27.4094 40.3614 27.4094 39.3851 28.3857L28.8165 38.9543C27.8402 39.9307 27.8402 41.5136 28.8165 42.4899L29.2302 42.9035C30.2065 43.8798 31.7894 43.8798 32.7657 42.9035Z" fill="#001823"/>
</svg>
