<svg width="30" height="31" viewBox="0 0 30 31" fill="none" xmlns="http://www.w3.org/2000/svg">
<path opacity="0.4" d="M15 30.1231C23.2843 30.1231 30 23.4074 30 15.1231C30 6.83884 23.2843 0.123108 15 0.123108C6.71573 0.123108 0 6.83884 0 15.1231C0 23.4074 6.71573 30.1231 15 30.1231Z" fill="#FAFAFA"/>
<path d="M12.985 21.9413C12.8765 21.9413 12.7725 21.8982 12.6957 21.8215C12.619 21.7447 12.5759 21.6407 12.5759 21.5322V21.1231C12.5759 21.0146 12.619 20.9106 12.6957 20.8338C12.7725 20.7571 12.8765 20.714 12.985 20.714H14.4259V19.8308C13.3236 19.6492 12.3231 19.0779 11.6063 18.221C10.8895 17.3641 10.504 16.2784 10.52 15.1613V14.9849L11.8559 16.0186C11.9994 16.6984 12.352 17.3164 12.8644 17.7857C13.3769 18.255 14.0233 18.5521 14.7132 18.6354C14.8873 18.6474 15.0621 18.6458 15.2359 18.6304L16.5309 19.6304C16.2473 19.7285 15.9547 19.7981 15.6573 19.8381V20.7081H17.0959C17.2044 20.7081 17.3085 20.7512 17.3852 20.8279C17.4619 20.9046 17.505 21.0087 17.505 21.1172V21.5263C17.505 21.6348 17.4619 21.7388 17.3852 21.8156C17.3085 21.8923 17.2044 21.9354 17.0959 21.9354L12.985 21.9413ZM18.0627 16.6599C18.239 16.2505 18.3298 15.8093 18.3296 15.3636V14.1304C18.3296 14.0219 18.3727 13.9178 18.4494 13.8411C18.5261 13.7644 18.6301 13.7213 18.7386 13.7213H19.1477C19.2562 13.7213 19.3603 13.7644 19.437 13.8411C19.5137 13.9178 19.5568 14.0219 19.5568 14.1304V15.364C19.5583 16.0834 19.3868 16.7925 19.0568 17.4317L18.0627 16.6599ZM12.5741 12.4172V11.2522C12.5697 10.9255 12.6302 10.6011 12.7522 10.298C12.8741 9.9948 13.0551 9.71891 13.2846 9.48629C13.5141 9.25366 13.7875 9.06896 14.089 8.94288C14.3904 8.81681 14.7139 8.75189 15.0407 8.75189C15.3675 8.75189 15.691 8.81681 15.9924 8.94288C16.2939 9.06896 16.5673 9.25366 16.7968 9.48629C17.0263 9.71891 17.2073 9.9948 17.3292 10.298C17.4512 10.6011 17.5117 10.9255 17.5073 11.2522V15.3636C17.5078 15.6261 17.4662 15.887 17.3841 16.1363L12.5741 12.4172Z" fill="#FAFAFA"/>
<path d="M6.9047 9.59314L7.40925 8.94405C7.44222 8.90115 7.48337 8.86521 7.53033 8.83833C7.57728 8.81144 7.6291 8.79413 7.68279 8.78741C7.73648 8.78069 7.79097 8.78468 7.84311 8.79917C7.89524 8.81365 7.94399 8.83833 7.98652 8.87178L23.1047 20.5577C23.1475 20.5907 23.1834 20.6318 23.2103 20.6787C23.2371 20.7256 23.2544 20.7774 23.2611 20.831C23.2678 20.8847 23.2639 20.9391 23.2494 20.9912C23.235 21.0433 23.2104 21.092 23.177 21.1345L22.6724 21.7841C22.6395 21.827 22.5983 21.8629 22.5513 21.8898C22.5044 21.9167 22.4526 21.934 22.3989 21.9407C22.3452 21.9474 22.2907 21.9434 22.2386 21.9289C22.1864 21.9145 22.1377 21.8898 22.0952 21.8563L6.97697 10.17C6.93413 10.137 6.89826 10.0959 6.87141 10.0489C6.84456 10.002 6.82728 9.95026 6.82056 9.89662C6.81384 9.84299 6.81781 9.78855 6.83225 9.73646C6.8467 9.68437 6.87132 9.63566 6.9047 9.59314Z" fill="#FAFAFA"/>
</svg>
