<svg width="30" height="31" viewBox="0 0 30 31" fill="none" xmlns="http://www.w3.org/2000/svg">
<path d="M15 30.1231C23.2843 30.1231 30 23.4074 30 15.1231C30 6.83884 23.2843 0.123108 15 0.123108C6.71573 0.123108 0 6.83884 0 15.1231C0 23.4074 6.71573 30.1231 15 30.1231Z" fill="#FAFAFA" fill-opacity="0.4"/>
<path d="M9.31304 19.6685C9.16443 19.6685 9.01728 19.6391 8.88001 19.5822C8.74274 19.5253 8.61804 19.4418 8.51302 19.3367C8.408 19.2315 8.32472 19.1067 8.26794 18.9694C8.21117 18.8321 8.18201 18.6849 8.18213 18.5363V12.724L16.8412 19.4204C16.6427 19.5803 16.3957 19.6678 16.1408 19.6685H9.31304ZM18.0308 16.5081V13.2595L20.6258 11.4699C20.7388 11.3912 20.8711 11.3448 21.0085 11.3355C21.1459 11.3263 21.2832 11.3546 21.4057 11.4174C21.5283 11.4802 21.6314 11.5752 21.7042 11.6921C21.7769 11.8091 21.8164 11.9436 21.8185 12.0813V18.1631C21.8172 18.3502 21.7462 18.53 21.6192 18.6674C21.4922 18.8048 21.3185 18.8898 21.1321 18.9058L18.0308 16.5081ZM10.358 10.5776H16.1412C16.2898 10.5776 16.437 10.6068 16.5743 10.6636C16.7116 10.7205 16.8364 10.8038 16.9415 10.9088C17.0466 11.0139 17.13 11.1386 17.1869 11.2759C17.2438 11.4132 17.273 11.5604 17.273 11.709V15.9217L10.358 10.5776Z" fill="#FAFAFA"/>
<path d="M7.80645 9.9381L8.26645 9.35628C8.32856 9.27888 8.41846 9.22881 8.51696 9.21675C8.61547 9.20469 8.71478 9.2316 8.79373 9.29173L22.5819 19.7886C22.6207 19.8178 22.6533 19.8545 22.6777 19.8966C22.7021 19.9386 22.7178 19.9851 22.7239 20.0334C22.73 20.0816 22.7264 20.1305 22.7132 20.1773C22.7001 20.2241 22.6777 20.2678 22.6474 20.3058L22.1878 20.8899C22.1257 20.9673 22.0358 21.0174 21.9373 21.0294C21.8388 21.0415 21.7395 21.0146 21.6605 20.9545L7.87191 10.4554C7.83308 10.4261 7.80051 10.3894 7.77613 10.3473C7.75174 10.3053 7.73603 10.2588 7.72993 10.2106C7.72383 10.1623 7.72745 10.1134 7.7406 10.0666C7.75374 10.0198 7.77614 9.97609 7.80645 9.9381Z" fill="#FAFAFA"/>
</svg>
