<svg width="32" height="24" viewBox="0 0 32 24" fill="none" xmlns="http://www.w3.org/2000/svg">
<path d="M10.8682 23.5293L0.468162 13.0693C0.167958 12.7666 -0.000488281 12.3576 -0.000488281 11.9313C-0.000488281 11.505 0.167958 11.0959 0.468162 10.7933L2.73016 8.51726C2.87827 8.36781 3.05451 8.24918 3.24872 8.16822C3.44293 8.08726 3.65125 8.04558 3.86166 8.04558C4.07207 8.04558 4.28039 8.08726 4.4746 8.16822C4.66881 8.24918 4.84506 8.36781 4.99316 8.51726L11.9992 15.5633L27.0052 0.471261C27.1533 0.32193 27.3296 0.203407 27.5238 0.122524C27.718 0.0416417 27.9263 0 28.1367 0C28.347 0 28.5553 0.0416417 28.7495 0.122524C28.9437 0.203407 29.12 0.32193 29.2682 0.471261L31.5312 2.74726C31.8314 3.04993 31.9998 3.45896 31.9998 3.88526C31.9998 4.31156 31.8314 4.72059 31.5312 5.02326L13.1312 23.5293C12.983 23.6786 12.8067 23.7971 12.6125 23.878C12.4183 23.9589 12.21 24.0005 11.9997 24.0005C11.7893 24.0005 11.581 23.9589 11.3868 23.878C11.1926 23.7971 11.0163 23.6786 10.8682 23.5293Z" fill="#FAFAFA"/>
</svg>
