<svg width="31" height="31" viewBox="0 0 31 31" fill="none" xmlns="http://www.w3.org/2000/svg">
<circle cx="15.541" cy="15.4171" r="14.5" fill="#FAFAFA" stroke="#FAFAFA"/>
<path d="M21.4621 13.4434H9.61996C8.74793 13.4434 8.04102 14.1503 8.04102 15.0224V15.8118C8.04102 16.6839 8.74793 17.3908 9.61996 17.3908H21.4621C22.3341 17.3908 23.041 16.6839 23.041 15.8118V15.0224C23.041 14.1503 22.3341 13.4434 21.4621 13.4434Z" fill="#01B1B8"/>
<path d="M17.5146 21.3382V9.49606C17.5146 8.62403 16.8077 7.91711 15.9357 7.91711H15.1462C14.2742 7.91711 13.5673 8.62403 13.5673 9.49606V21.3382C13.5673 22.2102 14.2742 22.9171 15.1462 22.9171H15.9357C16.8077 22.9171 17.5146 22.2102 17.5146 21.3382Z" fill="#01B1B8"/>
</svg>
