<svg width="20" height="20" viewBox="0 0 20 20" fill="none" xmlns="http://www.w3.org/2000/svg">
<path d="M17.5464 7.0285H2.54639C1.44182 7.0285 0.546387 7.92393 0.546387 9.0285V10.0285C0.546387 11.1331 1.44182 12.0285 2.54639 12.0285H17.5464C18.651 12.0285 19.5464 11.1331 19.5464 10.0285V9.0285C19.5464 7.92393 18.651 7.0285 17.5464 7.0285Z" fill="#FAFAFA"/>
<path d="M12.5464 17.0285L12.5464 2.0285C12.5464 0.923934 11.651 0.0285034 10.5464 0.0285034L9.54639 0.0285034C8.44182 0.0285034 7.54639 0.923934 7.54639 2.0285L7.54639 17.0285C7.54639 18.1331 8.44182 19.0285 9.54639 19.0285H10.5464C11.651 19.0285 12.5464 18.1331 12.5464 17.0285Z" fill="#FAFAFA"/>
</svg>
