<svg width="36" height="36" viewBox="0 0 36 36" fill="none" xmlns="http://www.w3.org/2000/svg">
<path d="M0.0673828 17.9356C0.0673828 14.4744 1.09374 11.091 3.01666 8.21314C4.93959 5.33528 7.67271 3.09226 10.8704 1.76772C14.0681 0.44319 17.5868 0.0966321 20.9815 0.771873C24.3761 1.44711 27.4943 3.11383 29.9417 5.56125C32.3892 8.00866 34.0559 11.1269 34.7311 14.5215C35.4064 17.9162 35.0598 21.4349 33.7353 24.6326C32.4107 27.8303 30.1677 30.5634 27.2899 32.4863C24.412 34.4093 21.0286 35.4356 17.5674 35.4356C12.9261 35.4356 8.4749 33.5919 5.19301 30.31C1.91113 27.0281 0.0673828 22.5769 0.0673828 17.9356H0.0673828Z" fill="#FAFAFA"/>
<path d="M14.462 26.9685C14.2375 26.9685 14.0221 26.8793 13.8633 26.7205C13.7045 26.5617 13.6152 26.3463 13.6152 26.1217V24.4271C13.6155 24.2027 13.7048 23.9876 13.8636 23.829C14.0224 23.6704 14.2376 23.5813 14.462 23.5813H15.3079V19.0644H14.462C14.2376 19.0644 14.0224 18.9753 13.8636 18.8167C13.7048 18.6581 13.6155 18.4429 13.6152 18.2185V16.5239C13.6152 16.2994 13.7045 16.084 13.8633 15.9252C14.0221 15.7664 14.2375 15.6771 14.462 15.6771H18.978C19.2026 15.6771 19.418 15.7664 19.5768 15.9252C19.7356 16.084 19.8248 16.2994 19.8248 16.5239V23.5813H20.6716C20.896 23.5813 21.1111 23.6704 21.2697 23.829C21.4283 23.9877 21.5175 24.2028 21.5175 24.4271V26.1207C21.5175 26.3452 21.4284 26.5604 21.2698 26.7192C21.1112 26.878 20.896 26.9673 20.6716 26.9676L14.462 26.9685ZM14.603 11.1612C14.6038 10.5752 14.7782 10.0027 15.1043 9.51589C15.4304 9.02908 15.8935 8.64987 16.435 8.42618C16.9766 8.20249 17.5723 8.14436 18.1468 8.25914C18.7214 8.37392 19.2491 8.65645 19.6631 9.07104C20.0771 9.48562 20.359 10.0136 20.473 10.5884C20.587 11.1631 20.5281 11.7587 20.3037 12.3C20.0793 12.8412 19.6995 13.3038 19.2123 13.6292C18.725 13.9547 18.1523 14.1284 17.5663 14.1284C17.1769 14.1284 16.7912 14.0516 16.4314 13.9024C16.0716 13.7533 15.7448 13.5347 15.4696 13.2591C15.1944 12.9835 14.9762 12.6564 14.8275 12.2964C14.6788 11.9364 14.6025 11.5506 14.603 11.1612Z" fill="black"/>
</svg>
