<svg width="25" height="24" viewBox="0 0 25 24" fill="none" xmlns="http://www.w3.org/2000/svg">
<g clip-path="url(#clip0_1143_7299)">
<path d="M12.3136 8.19898L15.8193 11.6346L15.836 11.4546C15.836 9.64954 14.3391 8.18262 12.4972 8.18262L12.3136 8.19898Z" fill="#FAFAFA"/>
<path d="M12.4972 6.00129C15.5688 6.00129 18.0618 8.44439 18.0618 11.4546C18.0618 12.1581 17.9171 12.8288 17.6667 13.4451L20.922 16.6352C22.6025 15.261 23.9269 13.4832 24.7449 11.4546C22.814 6.66663 18.0674 3.27466 12.4972 3.27466C10.9391 3.27466 9.44784 3.54731 8.06226 4.0381L10.4662 6.38846C11.0949 6.14853 11.7793 6.00129 12.4972 6.00129Z" fill="#FAFAFA"/>
<path d="M1.36803 3.02926L3.90549 5.51597L4.41188 6.01224C2.57556 7.41919 1.1232 9.28969 0.255127 11.4546C2.1805 16.2426 6.93264 19.6346 12.4973 19.6346C14.2223 19.6346 15.8694 19.3074 17.3774 18.713L17.8504 19.1765L21.0946 22.3612L22.5136 20.9761L2.787 1.63867L1.36803 3.02926ZM7.52251 9.05518L9.24197 10.7403C9.19189 10.9748 9.1585 11.2092 9.1585 11.4546C9.1585 13.2597 10.6554 14.7266 12.4973 14.7266C12.7477 14.7266 12.987 14.6939 13.2207 14.6448L14.9401 16.3299C14.2 16.6898 13.3765 16.9079 12.4973 16.9079C9.4256 16.9079 6.93264 14.4648 6.93264 11.4546C6.93264 10.593 7.15525 9.78591 7.52251 9.05518Z" fill="#FAFAFA"/>
</g>
<defs>
<clipPath id="clip0_1143_7299">
<rect width="24.4898" height="24" fill="white" transform="translate(0.255127)"/>
</clipPath>
</defs>
</svg>
