<svg width="36" height="36" viewBox="0 0 36 36" fill="none" xmlns="http://www.w3.org/2000/svg">
<g clip-path="url(#clip0_893_5557)">
<path d="M16.6091 22.3106C14.197 22.3106 12.234 20.3477 12.234 17.9356C12.234 15.5235 14.197 13.5606 16.6091 13.5606H23.9007V4.44602C23.9007 2.23373 22.1026 0.435608 19.8903 0.435608H4.5778C2.36551 0.435608 0.567383 2.23373 0.567383 4.44602V31.4252C0.567383 33.6375 2.36551 35.4356 4.5778 35.4356H19.8903C22.1026 35.4356 23.9007 33.6375 23.9007 31.4252V22.3106H16.6091Z" fill="#FAFAFA"/>
<path d="M27.7174 25.1164C27.1734 24.8903 26.8176 24.358 26.8176 23.7689V19.3939H16.6092C15.8042 19.3939 15.1509 18.7406 15.1509 17.9356C15.1509 17.1306 15.8042 16.4772 16.6092 16.4772H26.8176V12.1022C26.8176 11.5131 27.1734 10.9808 27.7174 10.7547C28.2628 10.5287 28.8899 10.6541 29.3069 11.0712L35.1403 16.9045C35.7105 17.4747 35.7105 18.3964 35.1403 18.9666L29.3069 24.7999C28.8899 25.217 28.2628 25.3424 27.7174 25.1164Z" fill="#FAFAFA"/>
</g>
<defs>
<clipPath id="clip0_893_5557">
<rect width="35" height="35" fill="white" transform="translate(0.567383 0.435608)"/>
</clipPath>
</defs>
</svg>
