<svg width="23" height="21" viewBox="0 0 23 21" fill="none" xmlns="http://www.w3.org/2000/svg">
<path d="M15.2435 17.8124L19.0069 20.543C19.2781 20.7399 19.6522 20.7106 19.8895 20.4739L22.1442 18.2245C22.3537 18.0138 22.4035 17.6921 22.2676 17.4279C20.5382 14.0211 16.3261 11.6166 11.3997 11.6166C6.47328 11.6166 2.2612 14.0211 0.531762 17.4279C0.39492 17.6923 0.444482 18.0149 0.654403 18.226L2.90912 20.4739C3.14643 20.7106 3.52053 20.7399 3.79177 20.543L7.55517 17.8124C7.68944 17.715 7.7834 17.5718 7.81932 17.4098L8.27215 15.363C8.33995 15.0651 8.56891 14.8303 8.86498 14.7551C10.5265 14.3314 12.2677 14.3314 13.9291 14.7551C14.2252 14.8302 14.4541 15.0651 14.5216 15.363L14.9744 17.4098C15.0116 17.5725 15.1074 17.7158 15.2435 17.8124Z" fill="#C4C4C4"/>
<path d="M19.3245 0.673157L12.7935 1.39882L14.8958 3.50108L11.3543 7.0426L5.35953 1.71391C5.05813 1.43921 4.63228 1.34785 4.24472 1.47473C3.85716 1.60161 3.56779 1.92713 3.4872 2.32689C3.40661 2.72665 3.54725 3.13886 3.85538 3.40599L10.6478 9.44373C11.0958 9.84185 11.7765 9.82183 12.2003 9.39807L16.4965 5.10184L18.5988 7.20411L19.3245 0.673157Z" fill="#C4C4C4"/>
</svg>
