<svg width="13" height="16" viewBox="0 0 13 16" fill="none" xmlns="http://www.w3.org/2000/svg">
<path d="M3.1572 5.91829C3.78895 8.14203 5.17476 10.0767 7.07694 11.3904L8.65593 10.0017C8.76068 9.90916 8.89275 9.85329 9.03212 9.8426C9.17148 9.8319 9.31053 9.86694 9.42818 9.94242L12.1824 11.7057C12.3099 11.7868 12.4048 11.9104 12.4503 12.0546C12.4958 12.1988 12.4889 12.3544 12.431 12.494L11.343 15.143C11.2881 15.278 11.1889 15.3903 11.0616 15.4615C10.9344 15.5327 10.7868 15.5585 10.6429 15.5346C7.38253 14.9953 4.46984 13.183 2.5454 10.4965C0.620966 7.80988 -0.157629 4.46896 0.380841 1.20841C0.4043 1.06449 0.476023 0.932842 0.584219 0.83509C0.692416 0.737338 0.830649 0.679304 0.976199 0.670525L3.83359 0.491792C3.98487 0.481651 4.13485 0.525341 4.25701 0.615131C4.37918 0.704921 4.46565 0.835025 4.50113 0.982427L5.28399 4.15699C5.31838 4.29284 5.30741 4.4362 5.25275 4.56524C5.19809 4.69427 5.10274 4.80189 4.98123 4.87169L3.1572 5.91829Z" fill="#C4C4C4"/>
</svg>
