<svg width="36" height="36" viewBox="0 0 36 36" fill="none" xmlns="http://www.w3.org/2000/svg">
<g clip-path="url(#clip0_893_5577)">
<path d="M17.5679 11.3729C16.362 11.3729 15.3804 12.3545 15.3804 13.5604V15.748H19.7554V13.5604C19.7554 12.3545 18.7738 11.3729 17.5679 11.3729Z" fill="#FAFAFA"/>
<path d="M31.6382 0.650568C30.8787 0.286346 29.9794 0.391005 29.3213 0.918675C26.5881 3.11583 21.6683 3.11474 18.9393 0.919769C18.1382 0.274588 16.9974 0.275682 16.1963 0.918675C13.4643 3.11576 8.54234 3.11467 5.81431 0.919701C5.1573 0.391005 4.25502 0.286278 3.49848 0.650499C2.73934 1.0137 2.25549 1.78165 2.25549 2.62337L2.25439 20.1235C2.25439 26.9798 7.75094 32.6713 16.9568 35.3491C17.1566 35.4068 17.3617 35.4356 17.5679 35.4356C17.7739 35.4356 17.9792 35.4068 18.1789 35.3491C27.3849 32.6713 32.8805 26.9809 32.8805 20.1235V2.62337C32.8805 1.78165 32.3976 1.0137 31.6382 0.650568ZM24.1304 22.3105C24.1304 23.5191 23.1511 24.498 21.9429 24.498H13.1928C11.9846 24.498 11.0053 23.5191 11.0053 22.3105V17.9354C11.0053 16.7274 11.9846 15.7479 13.1928 15.7479V13.5604C13.1928 11.1486 15.1549 9.18537 17.5678 9.18537C19.9807 9.18537 21.9429 11.1486 21.9429 13.5604V15.7479C23.1511 15.7479 24.1304 16.7274 24.1304 17.9354V22.3105Z" fill="#FAFAFA"/>
<path d="M17.5679 19.0291C16.9639 19.0291 16.4741 19.5188 16.4741 20.1229C16.4741 20.7274 16.9639 21.2166 17.5679 21.2166C18.1719 21.2166 18.6616 20.7274 18.6616 20.1229C18.6616 19.5188 18.1719 19.0291 17.5679 19.0291Z" fill="#FAFAFA"/>
</g>
<defs>
<clipPath id="clip0_893_5577">
<rect width="35" height="35" fill="white" transform="translate(0.0673828 0.435608)"/>
</clipPath>
</defs>
</svg>
