<svg width="33" height="36" viewBox="0 0 33 36" fill="none" xmlns="http://www.w3.org/2000/svg">
<path d="M6.50587 35.4339C6.26889 35.3876 6.03012 35.3396 5.79134 35.2967C3.00505 34.8073 1.09307 32.9723 0.804027 30.362C0.683742 29.271 0.742987 28.1568 0.818389 27.0574C0.909949 25.73 1.17386 24.419 1.61191 23.1461C2.1864 21.4764 3.00146 19.9308 4.50053 18.7818C5.81827 17.7701 7.3712 17.332 9.06415 17.3453C9.44476 17.3486 9.84511 17.542 10.1952 17.7172C10.7463 17.9949 11.2634 18.3322 11.7948 18.643C13.4357 19.5985 15.213 20.1159 17.1681 19.982C18.6061 19.8828 19.9364 19.4398 21.1662 18.7504C21.5881 18.514 22.0261 18.2909 22.4067 18.0049C23.4103 17.2543 24.5216 17.2477 25.7047 17.4874C27.9344 17.942 29.4838 19.1769 30.5538 20.9888C31.4694 22.5394 31.9613 24.2157 32.1713 25.9515C32.3257 27.2261 32.3993 28.5155 32.3993 29.7983C32.4011 32.5376 30.3365 34.7743 27.412 35.2917C27.1481 35.338 26.886 35.3876 26.6239 35.4355C19.9185 35.4339 13.2113 35.4339 6.50587 35.4339Z" fill="#FAFAFA"/>
<path d="M16.3371 0.435608C21.4124 0.437262 25.5093 4.20806 25.5003 8.87156C25.4931 13.5334 21.3819 17.3141 16.3246 17.3092C11.2493 17.3025 7.17399 13.5384 7.17578 8.85998C7.17758 4.17004 11.2403 0.433955 16.3371 0.435608Z" fill="#FAFAFA"/>
</svg>
