<svg width="36" height="41" viewBox="0 0 36 41" fill="none" xmlns="http://www.w3.org/2000/svg">
<path d="M6.30809 34.4538C6.1574 33.4097 6.38881 32.3463 6.95973 31.4592C7.53066 30.5721 8.40271 29.9211 9.41546 29.6258V23.3146C9.99859 23.2177 10.5887 23.1689 11.1798 23.1687H11.9361V29.6263C12.9503 29.9218 13.8233 30.5745 14.3938 31.4636C14.9643 32.3527 15.1937 33.4183 15.0397 34.4634C14.8856 35.5085 14.3586 36.4625 13.5558 37.1493C12.7531 37.836 11.729 38.2091 10.6726 38.1995C9.61676 38.2026 8.59496 37.826 7.7937 37.1384C6.99245 36.4507 6.46517 35.4979 6.30809 34.4538ZM27.4893 37.9914L26.5992 37.1077C26.5409 37.0499 26.4945 36.981 26.4629 36.9052C26.4313 36.8293 26.415 36.748 26.415 36.6658C26.415 36.5836 26.4313 36.5023 26.4629 36.4264C26.4945 36.3506 26.5409 36.2818 26.5992 36.2239L27.048 35.7784V33.935C27.059 33.3244 26.8553 32.7293 26.4724 32.2535C26.0895 31.7777 25.5517 31.4515 24.9529 31.3317C24.5914 31.2717 24.2212 31.2906 23.8677 31.387C23.5142 31.4833 23.1857 31.6549 22.9046 31.8899C22.6253 32.1242 22.4005 32.4166 22.2459 32.7467C22.0912 33.0768 22.0105 33.4367 22.0093 33.8012V35.7789L22.458 36.2244C22.5164 36.2823 22.5627 36.3511 22.5943 36.427C22.626 36.5028 22.6422 36.5842 22.6422 36.6663C22.6422 36.7485 22.626 36.8299 22.5943 36.9057C22.5627 36.9815 22.5164 37.0504 22.458 37.1082L21.5684 37.992C21.4501 38.1094 21.2901 38.1752 21.1234 38.1752C20.9567 38.1752 20.7967 38.1094 20.6784 37.992L19.8668 37.1867C19.6316 36.9526 19.499 36.6347 19.4981 36.3029V34.0198C19.4887 32.881 19.8528 31.7706 20.5346 30.8585C21.2165 29.9463 22.1784 29.2828 23.2733 28.9695V23.4653C23.5103 23.3719 23.744 23.2732 23.9743 23.1693H25.291C25.4546 23.1693 25.6173 23.1733 25.7792 23.1814V28.9853C26.8544 29.2548 27.8094 29.8743 28.4938 30.7462C29.1782 31.618 29.5532 32.6928 29.5597 33.8012V36.3024C29.5593 36.4667 29.5265 36.6293 29.4633 36.781C29.4 36.9326 29.3075 37.0703 29.191 37.1862L28.3794 37.9914C28.261 38.1087 28.1012 38.1744 27.9346 38.1744C27.768 38.1744 27.6082 38.1087 27.4898 37.9914H27.4893ZM8.1525 10.6602C8.17965 8.00416 9.25382 5.46607 11.1416 3.59746C13.0294 1.72884 15.5784 0.680664 18.2346 0.680664C20.8908 0.680664 23.4398 1.72884 25.3276 3.59746C27.2154 5.46607 28.2896 8.00416 28.3167 10.6602C28.3159 11.9762 28.0545 13.279 27.5477 14.4934C27.0408 15.7079 26.2986 16.81 25.3637 17.7361C23.954 19.1353 22.1629 20.0878 20.2147 20.4742C18.2664 20.8607 16.2474 20.6639 14.4104 19.9087C12.5733 19.1535 10.9998 17.8732 9.88672 16.2282C8.77363 14.5832 8.17039 12.6464 8.1525 10.6602Z" fill="#01B1B8"/>
<path d="M4.37128 40.6806C3.87665 40.6825 3.38649 40.5869 2.9288 40.3993C2.4711 40.2117 2.05484 39.9358 1.70379 39.5874C1.35273 39.2389 1.07376 38.8247 0.882792 38.3684C0.691828 37.9121 0.592615 37.4227 0.59082 36.928L0.59082 33.6758C0.598442 31.1845 1.48889 28.7764 3.104 26.8795C4.71911 24.9825 6.95432 23.7194 9.4126 23.3146V29.6262C8.39843 29.9289 7.52708 30.5865 6.95786 31.4788C6.38863 32.3711 6.15956 33.4384 6.31252 34.4857C6.46547 35.533 6.99024 36.4902 7.79088 37.1824C8.59152 37.8746 9.61455 38.2555 10.6729 38.2555C11.7313 38.2555 12.7543 37.8746 13.555 37.1824C14.3556 36.4902 14.8804 35.533 15.0333 34.4857C15.1863 33.4384 14.9572 32.3711 14.388 31.4788C13.8188 30.5865 12.9474 29.9289 11.9333 29.6262V23.1687H12.4936C14.1788 23.9395 16.0019 24.363 17.8542 24.414C19.7066 24.4649 21.5502 24.1423 23.2752 23.4652V28.9695C22.1796 29.2817 21.2165 29.9445 20.5337 30.8564C19.8509 31.7683 19.4859 32.879 19.4947 34.0182V36.3008C19.4951 36.4651 19.5278 36.6277 19.5911 36.7794C19.6544 36.931 19.7469 37.0687 19.8634 37.1845L20.675 37.9898C20.7933 38.1071 20.9532 38.1728 21.1198 38.1728C21.2863 38.1728 21.4462 38.1071 21.5645 37.9898L22.4546 37.1061C22.513 37.0482 22.5593 36.9794 22.591 36.9036C22.6226 36.8277 22.6389 36.7464 22.6389 36.6642C22.6389 36.582 22.6226 36.5007 22.591 36.4248C22.5593 36.349 22.513 36.2801 22.4546 36.2223L22.0059 35.7767V33.8012C22.007 33.4366 22.0877 33.0767 22.2423 32.7466C22.397 32.4165 22.6219 32.1241 22.9012 31.8899C23.1828 31.6544 23.512 31.4827 23.8661 31.3864C24.2203 31.2901 24.5911 31.2716 24.9532 31.3321C25.552 31.4521 26.0897 31.7783 26.4725 32.2541C26.8554 32.7299 27.0592 33.3249 27.0483 33.9355V35.7788L26.5995 36.2244C26.5412 36.2822 26.4948 36.3511 26.4632 36.4269C26.4316 36.5028 26.4153 36.5841 26.4153 36.6663C26.4153 36.7485 26.4316 36.8298 26.4632 36.9057C26.4948 36.9815 26.5412 37.0503 26.5995 37.1082L27.4891 37.9919C27.6075 38.1093 27.7674 38.1752 27.9341 38.1752C28.1008 38.1752 28.2608 38.1093 28.3792 37.9919L29.1892 37.1861C29.4243 36.952 29.5569 36.6342 29.5579 36.3024V33.8012C29.5514 32.6927 29.1763 31.6179 28.4918 30.746C27.8073 29.8741 26.8521 29.2547 25.7769 28.9853V23.1808C28.4873 23.2951 31.0493 24.4496 32.9305 26.4041C34.8117 28.3587 35.8673 30.9631 35.8779 33.6758V36.928C35.874 37.9269 35.4736 38.8833 34.7646 39.5869C34.0557 40.2905 33.0963 40.6837 32.0975 40.6801L4.37128 40.6806ZM8.78217 33.8012C8.78148 33.5543 8.82987 33.3097 8.92453 33.0817C9.0192 32.8537 9.15825 32.6467 9.3336 32.4729C9.64104 32.1669 10.045 31.977 10.4768 31.9354C10.9086 31.8938 11.3414 32.0032 11.7016 32.2448C12.0618 32.4865 12.327 32.8456 12.4523 33.2609C12.5775 33.6762 12.5548 34.122 12.3883 34.5225C12.2217 34.923 11.9214 35.2534 11.5386 35.4574C11.1558 35.6614 10.7142 35.7264 10.2888 35.6413C9.86351 35.5563 9.4808 35.3264 9.2059 34.9909C8.93099 34.6554 8.78088 34.2349 8.78112 33.8012H8.78217Z" fill="#FAFAFA"/>
</svg>
