<svg width="25" height="24" viewBox="0 0 25 24" fill="none" xmlns="http://www.w3.org/2000/svg">
<g clip-path="url(#clip0_890_5305)">
<path d="M22.7171 9.85951L3.35336 1.82466C2.5376 1.48613 1.61599 1.63505 0.948254 2.21312C0.28052 2.79127 0.00123857 3.68209 0.219489 4.53788L1.94304 11.2969H10.3818C10.7701 11.2969 11.0849 11.6117 11.0849 12.0001C11.0849 12.3884 10.7701 12.7032 10.3818 12.7032H1.94304L0.219489 19.4622C0.00123857 20.318 0.280473 21.2088 0.948254 21.7869C1.61735 22.3662 2.53905 22.5133 3.35341 22.1754L22.7172 14.1406C23.5988 13.7748 24.1465 12.9546 24.1465 12.0001C24.1465 11.0455 23.5988 10.2253 22.7171 9.85951Z" fill="#FAFAFA"/>
</g>
<defs>
<clipPath id="clip0_890_5305">
<rect width="24" height="24" fill="white" transform="translate(0.146484)"/>
</clipPath>
</defs>
</svg>
