<svg width="30" height="30" viewBox="0 0 30 30" fill="none" xmlns="http://www.w3.org/2000/svg">
<path d="M15 30C23.2843 30 30 23.2843 30 15C30 6.71573 23.2843 0 15 0C6.71573 0 0 6.71573 0 15C0 23.2843 6.71573 30 15 30Z" fill="#FAFAFA" fill-opacity="0.4"/>
<path d="M21.8805 10.5839L18.7065 12.7467V17.2554L21.8805 19.4181C22.0181 19.514 22.1792 19.5707 22.3465 19.5824C22.5139 19.5941 22.6812 19.5602 22.8309 19.4844C22.9805 19.4087 23.1068 19.2938 23.1964 19.152C23.286 19.0102 23.3356 18.8467 23.3398 18.679V11.32C23.3358 11.1523 23.2863 10.9887 23.1967 10.8469C23.107 10.7051 22.9805 10.5902 22.8307 10.5146C22.6809 10.4391 22.5134 10.4056 22.346 10.4178C22.1787 10.43 22.0178 10.4874 21.8805 10.5839Z" fill="#FAFAFA"/>
<rect x="6.66016" y="9.5" width="11.1197" height="11" rx="1" fill="#FAFAFA"/>
</svg>
