<svg width="51" height="50" viewBox="0 0 51 50" fill="none" xmlns="http://www.w3.org/2000/svg">
<circle opacity="0.4" cx="25.8999" cy="25" r="25" fill="#FAFAFA"/>
<g clip-path="url(#clip0_890_5262)">
<path d="M25.8999 17.2508C20.9323 17.2508 16.4275 19.9686 13.1033 24.383C12.8321 24.7447 12.8321 25.25 13.1033 25.6116C16.4275 30.0314 20.9323 32.7492 25.8999 32.7492C30.8675 32.7492 35.3723 30.0314 38.6965 25.617C38.9677 25.2553 38.9677 24.75 38.6965 24.3884C35.3723 19.9686 30.8675 17.2508 25.8999 17.2508ZM26.2562 30.4569C22.9587 30.6643 20.2356 27.9465 20.443 24.6437C20.6132 21.9205 22.8204 19.7133 25.5436 19.5431C28.8411 19.3357 31.5642 22.0535 31.3568 25.3563C31.1813 28.0742 28.9741 30.2814 26.2562 30.4569ZM26.0914 27.9359C24.315 28.0476 22.847 26.5849 22.964 24.8085C23.0544 23.3406 24.2458 22.1545 25.7138 22.0588C27.4902 21.9471 28.9581 23.4097 28.8411 25.1862C28.7454 26.6594 27.554 27.8455 26.0914 27.9359Z" fill="#FAFAFA"/>
</g>
<defs>
<clipPath id="clip0_890_5262">
<rect width="26" height="26" fill="white" transform="translate(12.8999 12)"/>
</clipPath>
</defs>
</svg>
