<svg width="30" height="30" viewBox="0 0 30 30" fill="none" xmlns="http://www.w3.org/2000/svg">
<g clip-path="url(#clip0_1162_7312)">
<path d="M13.3677 9.11709C13.9657 6.97809 13.4227 4.58709 11.7447 2.90409C10.0707 1.23809 7.70571 0.692091 5.58071 1.26909L9.18271 4.87209L8.23671 8.39809L4.70571 9.34209L1.10172 5.74209C0.527715 7.86909 1.07472 10.2321 2.74672 11.9041C4.49472 13.6551 7.01771 14.1701 9.22371 13.4511L9.24471 13.4711L24.0627 28.2891C24.6487 28.8741 25.4177 29.1701 26.1857 29.1701C26.9557 29.1701 27.7207 28.8741 28.3087 28.2891C29.4807 27.1191 29.4807 25.2201 28.3087 24.0431L13.3677 9.11709ZM26.4437 27.7861C25.8127 27.7861 25.3027 27.2731 25.3027 26.6391C25.3027 26.0051 25.8127 25.4931 26.4437 25.4931C27.0807 25.4931 27.5957 26.0051 27.5957 26.6391C27.5957 27.2731 27.0807 27.7861 26.4437 27.7861Z" fill="#FAFAFA"/>
</g>
<defs>
<clipPath id="clip0_1162_7312">
<rect width="28.306" height="28.306" fill="white" transform="translate(0.881836 0.955078)"/>
</clipPath>
</defs>
</svg>
