<svg width="51" height="50" viewBox="0 0 51 50" fill="none" xmlns="http://www.w3.org/2000/svg">
<circle cx="25.2192" cy="25" r="25" fill="#FAFAFA" fill-opacity="0.4"/>
<path d="M23.4412 33.0266L19.5796 29.1657H15.1496C14.8733 29.1657 14.6084 29.056 14.413 28.8606C14.2177 28.6653 14.1079 28.4003 14.1079 28.1241V21.8741C14.1079 21.5978 14.2177 21.3328 14.413 21.1375C14.6084 20.9421 14.8733 20.8324 15.1496 20.8324H19.5796L23.4412 16.9716C23.5871 16.8262 23.7727 16.7274 23.9746 16.6874C24.1766 16.6474 24.3859 16.6681 24.5761 16.7469C24.7663 16.8257 24.9289 16.959 25.0434 17.1301C25.1579 17.3012 25.2192 17.5024 25.2196 17.7082V32.2916C25.2197 32.4291 25.1925 32.5652 25.1397 32.6921C25.0869 32.8191 25.0094 32.9343 24.9117 33.0311C24.8141 33.1278 24.6982 33.2043 24.5708 33.256C24.4434 33.3078 24.3071 33.3337 24.1696 33.3324C24.0339 33.3325 23.8996 33.3054 23.7746 33.2529C23.6495 33.2004 23.5362 33.1234 23.4412 33.0266ZM34.1446 28.9607L32.1637 26.9799L30.1829 28.9607C30.0515 29.0918 29.8735 29.1654 29.6879 29.1654C29.5023 29.1654 29.3243 29.0918 29.1929 28.9607L28.2021 27.9699C28.0709 27.8384 27.9973 27.6602 27.9973 27.4745C27.9973 27.2887 28.0709 27.1106 28.2021 26.9791L30.1829 24.9991L28.2021 23.0182C28.1369 22.9532 28.0853 22.876 28.05 22.791C28.0148 22.706 27.9966 22.6148 27.9966 22.5228C27.9966 22.4308 28.0148 22.3397 28.05 22.2546C28.0853 22.1696 28.1369 22.0924 28.2021 22.0274L29.1912 21.0366C29.3228 20.9054 29.5009 20.8318 29.6867 20.8318C29.8724 20.8318 30.0505 20.9054 30.1821 21.0366L32.1629 23.0182L34.1437 21.0366C34.2753 20.9054 34.4534 20.8318 34.6392 20.8318C34.8249 20.8318 35.003 20.9054 35.1346 21.0366L36.1246 22.0274C36.1897 22.0924 36.2414 22.1696 36.2766 22.2546C36.3119 22.3397 36.33 22.4308 36.33 22.5228C36.33 22.6148 36.3119 22.706 36.2766 22.791C36.2414 22.876 36.1897 22.9532 36.1246 23.0182L34.1446 24.9991L36.1254 26.9799C36.1905 27.0449 36.2422 27.1221 36.2775 27.2071C36.3127 27.2922 36.3309 27.3833 36.3309 27.4753C36.3309 27.5673 36.3127 27.6585 36.2775 27.7435C36.2422 27.8285 36.1905 27.9057 36.1254 27.9707L35.1354 28.9607C35.0704 29.0259 34.9932 29.0775 34.9082 29.1128C34.8231 29.1481 34.732 29.1662 34.64 29.1662C34.548 29.1662 34.4568 29.1481 34.3718 29.1128C34.2868 29.0775 34.2096 29.0259 34.1446 28.9607Z" fill="#FAFAFA"/>
</svg>
