<svg width="31" height="31" viewBox="0 0 31 31" fill="none" xmlns="http://www.w3.org/2000/svg">
<circle cx="15.541" cy="15.4171" r="15" fill="#FAFAFA"/>
<path d="M12.6626 21.8841L6.8288 16.0167C6.66041 15.8469 6.56592 15.6175 6.56592 15.3784C6.56592 15.1392 6.66041 14.9098 6.8288 14.74L8.09764 13.4633C8.18072 13.3795 8.27958 13.3129 8.38852 13.2675C8.49746 13.2221 8.61432 13.1987 8.73234 13.1987C8.85037 13.1987 8.96722 13.2221 9.07616 13.2675C9.1851 13.3129 9.28397 13.3795 9.36704 13.4633L13.297 17.4157L21.7144 8.95002C21.7975 8.86625 21.8964 8.79977 22.0053 8.7544C22.1143 8.70903 22.2311 8.68567 22.3491 8.68567C22.4671 8.68567 22.5839 8.70903 22.6929 8.7544C22.8018 8.79977 22.9007 8.86625 22.9838 8.95002L24.2532 10.2267C24.4216 10.3965 24.5161 10.6259 24.5161 10.8651C24.5161 11.1042 24.4216 11.3336 24.2532 11.5034L13.932 21.8841C13.8488 21.9679 13.75 22.0344 13.641 22.0797C13.5321 22.1251 13.4153 22.1485 13.2973 22.1485C13.1792 22.1485 13.0624 22.1251 12.9535 22.0797C12.8445 22.0344 12.7457 21.9679 12.6626 21.8841Z" fill="#01B1B8"/>
</svg>
