<svg width="30" height="30" viewBox="0 0 30 30" fill="none" xmlns="http://www.w3.org/2000/svg">
<path d="M15 30C23.2843 30 30 23.2843 30 15C30 6.71573 23.2843 0 15 0C6.71573 0 0 6.71573 0 15C0 23.2843 6.71573 30 15 30Z" fill="#FAFAFA" fill-opacity="0.4"/>
<path d="M12.3745 15.0002V10.6252C12.3745 9.92892 12.6511 9.2612 13.1434 8.76889C13.6357 8.27658 14.3034 8 14.9997 8C15.6959 8 16.3636 8.27658 16.8559 8.76889C17.3482 9.2612 17.6248 9.92892 17.6248 10.6252V15.0002C17.6155 15.6902 17.3348 16.3489 16.8435 16.8336C16.3522 17.3182 15.6898 17.59 14.9997 17.59C14.3095 17.59 13.6472 17.3182 13.1559 16.8336C12.6646 16.3489 12.3839 15.6902 12.3745 15.0002V15.0002Z" fill="#FAFAFA"/>
<path d="M19.8128 15.0001C19.811 16.1619 19.3894 17.2839 18.6256 18.1594C17.8618 19.0349 16.8074 19.6048 15.6565 19.7642V20.6878H17.1874C17.3035 20.6878 17.4147 20.7339 17.4967 20.8159C17.5788 20.8979 17.6248 21.0092 17.6248 21.1252V21.5626C17.6248 21.6786 17.5788 21.7899 17.4967 21.8719C17.4147 21.9539 17.3035 22 17.1874 22H12.8124C12.6964 22 12.5852 21.9539 12.5031 21.8719C12.4211 21.7899 12.375 21.6786 12.375 21.5626V21.1252C12.375 21.0092 12.4211 20.8979 12.5031 20.8159C12.5852 20.7339 12.6964 20.6878 12.8124 20.6878H14.3433V19.7541C13.1704 19.5608 12.1059 18.953 11.3431 18.0413C10.5804 17.1295 10.1702 15.9743 10.187 14.7857V13.6874C10.187 13.5714 10.2331 13.4601 10.3151 13.3781C10.3972 13.2961 10.5084 13.25 10.6244 13.25H11.0618C11.1778 13.25 11.2891 13.2961 11.3711 13.3781C11.4532 13.4601 11.4992 13.5714 11.4992 13.6874V14.8432C11.4838 15.7315 11.7968 16.5942 12.3782 17.266C12.9597 17.9377 13.7686 18.3712 14.6499 18.4834C15.1365 18.5316 15.6279 18.4775 16.0923 18.3244C16.5567 18.1714 16.984 17.9228 17.3466 17.5947C17.7092 17.2666 17.9991 16.8663 18.1977 16.4194C18.3963 15.9726 18.4991 15.4891 18.4997 15.0001V13.6874C18.4997 13.6299 18.511 13.573 18.533 13.5199C18.555 13.4668 18.5873 13.4185 18.6279 13.3779C18.6686 13.3373 18.7169 13.3051 18.77 13.2831C18.8231 13.2612 18.8801 13.2499 18.9375 13.25H19.375C19.491 13.25 19.6022 13.2961 19.6842 13.3781C19.7663 13.4601 19.8124 13.5714 19.8124 13.6874L19.8128 15.0001Z" fill="#FAFAFA"/>
</svg>
