<svg width="25" height="24" viewBox="0 0 25 24" fill="none" xmlns="http://www.w3.org/2000/svg">
<g clip-path="url(#clip0_1142_7430)">
<path d="M12.6179 4.84692C8.03246 4.84692 3.87413 7.35567 0.805708 11.4305C0.555324 11.7644 0.555324 12.2308 0.805708 12.5646C3.87413 16.6444 8.03246 19.1532 12.6179 19.1532C17.2034 19.1532 21.3617 16.6444 24.4301 12.5695C24.6805 12.2357 24.6805 11.7693 24.4301 11.4354C21.3617 7.35567 17.2034 4.84692 12.6179 4.84692ZM12.9469 17.0372C9.90298 17.2286 7.38932 14.7199 7.58079 11.6711C7.7379 9.15745 9.77533 7.12001 12.289 6.96291C15.3329 6.77144 17.8465 9.28019 17.655 12.329C17.493 14.8377 15.4556 16.8752 12.9469 17.0372ZM12.7947 14.7101C11.1549 14.8132 9.79988 13.4631 9.90789 11.8233C9.99135 10.4683 11.0911 9.37347 12.4461 9.2851C14.0859 9.182 15.4409 10.5321 15.3329 12.1719C15.2445 13.5318 14.1448 14.6266 12.7947 14.7101Z" fill="#FAFAFA"/>
</g>
<defs>
<clipPath id="clip0_1142_7430">
<rect width="24" height="24" fill="white" transform="translate(0.61792)"/>
</clipPath>
</defs>
</svg>
