<svg width="23" height="25" viewBox="0 0 23 25" fill="none" xmlns="http://www.w3.org/2000/svg">
<path d="M4.85048 24.6703C4.68798 24.6386 4.52425 24.6057 4.36052 24.5762C2.44992 24.2407 1.13885 22.9824 0.940646 21.1925C0.858165 20.4443 0.89879 19.6803 0.950495 18.9265C1.01328 18.0162 1.19424 17.1173 1.49462 16.2444C1.88856 15.0995 2.44746 14.0396 3.47539 13.2518C4.37899 12.558 5.44385 12.2576 6.60473 12.2667C6.86572 12.2689 7.14024 12.4016 7.3803 12.5217C7.75823 12.7122 8.11278 12.9434 8.47717 13.1565C9.60236 13.8117 10.8211 14.1666 12.1617 14.0747C13.1478 14.0067 14.06 13.7029 14.9033 13.2302C15.1926 13.0681 15.493 12.9151 15.7539 12.719C16.4421 12.2043 17.2041 12.1998 18.0154 12.3642C19.5444 12.6759 20.6068 13.5227 21.3405 14.7651C21.9683 15.8284 22.3056 16.9778 22.4497 18.1681C22.5555 19.0421 22.606 19.9263 22.606 20.8059C22.6072 22.6843 21.1915 24.218 19.1861 24.5728C19.0052 24.6045 18.8254 24.6386 18.6457 24.6714C14.0477 24.6703 9.44847 24.6703 4.85048 24.6703Z" fill="#FAFAFA"/>
<path d="M11.5921 0.671387C15.0723 0.672521 17.8816 3.25821 17.8754 6.45604C17.8705 9.65273 15.0514 12.2452 11.5835 12.2418C8.10333 12.2373 5.30883 9.65613 5.31006 6.4481C5.31129 3.23214 8.09717 0.670254 11.5921 0.671387Z" fill="#FAFAFA"/>
</svg>
